<svg id="design" xmlns="http://www.w3.org/2000/svg" viewBox="0 0 100 100"><defs><style>.cls-1{fill:#222;}.cls-2{fill:#54a4f3;}</style></defs><path class="cls-1" d="M100,39.05c-.29.07-.24.36-.31.55a6.88,6.88,0,0,1-6.62,4.84c-.83,0-1.87-.35-2.45.18s-.68,1.5-1,2.29c-.79,2.07-1.93,2.43-3.72,1.18l-4.64-3.25a1.47,1.47,0,0,0-.86-.4H70.5V82a9.23,9.23,0,0,1-7.69,9.51,12.78,12.78,0,0,1-2.23.13c-5.93,0-11.85,0-17.77,0a1.91,1.91,0,0,0-1.54.61c-1.43,1.42-2.9,2.81-4.36,4.2-1.21,1.15-2.1,1.16-3.29,0-1.44-1.36-2.9-2.72-4.29-4.13a2.24,2.24,0,0,0-1.8-.71c-5.83,0-11.65,0-17.48,0-5.13,0-8.21-2.22-9.8-7.09,0-.15,0-.33-.25-.37V28.69c.06-.06.15-.12.17-.2,1.5-5.11,4.6-7.44,9.92-7.44h37a2,2,0,0,0,1.19-.14V19.86c0-3.38,0-6.77,0-10.15a6.8,6.8,0,0,1,6.77-7q19.09,0,38.18,0A6.78,6.78,0,0,1,99.8,7.88c0,.18,0,.41.2.5ZM35.25,92.61c1.39-1.34,2.77-2.62,4.1-4a3.06,3.06,0,0,1,2.35-.94c6.31,0,12.63-.08,18.94,0a5.7,5.7,0,0,0,6-6q-.12-25.38,0-50.78a5.74,5.74,0,0,0-6-6q-25.38.13-50.77,0a5.74,5.74,0,0,0-6,6q.12,25.39,0,50.78a5.73,5.73,0,0,0,6.07,6c6.32-.14,12.63,0,19-.05a2.91,2.91,0,0,1,2.18.87C32.43,89.93,33.83,91.25,35.25,92.61ZM86.62,43.8c.22-.58.41-1.06.6-1.54.54-1.4,1-1.72,2.46-1.74,1.07,0,2.15,0,3.22,0a3,3,0,0,0,3.19-3.25q0-13.73,0-27.45a2.94,2.94,0,0,0-3.22-3.2H55.47A3,3,0,0,0,52.2,9.89c0,3.48,0,7,0,10.45a.79.79,0,0,0,.2.71h1c2.77,0,5.54,0,8.3,0a9,9,0,0,1,8.63,7.62c.45,3.2.09,6.44.18,9.66,0,.7,0,1.41,0,2.16,3.46,0,6.81,0,10.16,0a3.66,3.66,0,0,1,2.36.75C84.16,42.12,85.35,42.91,86.62,43.8Z"/><path class="cls-2" d="M35.33,33.38A23.15,23.15,0,1,1,12.11,55.84,23.09,23.09,0,0,1,35.33,33.38Zm3.3,18.49h0v1.94c0,.07,0,.13,0,.2a1.9,1.9,0,0,0,1.75,1.87,1.81,1.81,0,0,0,2.08-1.59,23.13,23.13,0,0,0,0-4.85,1.85,1.85,0,0,0-2-1.61,1.88,1.88,0,0,0-1.81,1.8C38.59,50.38,38.63,51.12,38.63,51.87Zm-6.22.05h0c0-.74.05-1.49,0-2.23a1.92,1.92,0,0,0-2-1.86,1.88,1.88,0,0,0-1.89,1.94c0,1.39,0,2.79,0,4.18a1.88,1.88,0,0,0,1.88,1.94,1.91,1.91,0,0,0,2-1.93C32.44,53.29,32.41,52.6,32.41,51.92Z"/><path class="cls-1" d="M44.78,64.47a1.94,1.94,0,0,0-1.15-2,1.84,1.84,0,0,0-2.16.39,8.94,8.94,0,0,1-4.69,2.41,8.6,8.6,0,0,1-7.26-2c-.2-.16-.38-.35-.59-.51a1.94,1.94,0,0,0-2.61,2.86,11.91,11.91,0,0,0,6.33,3.43A12.52,12.52,0,0,0,43.85,66,2.16,2.16,0,0,0,44.78,64.47Z"/><path class="cls-1" d="M38.63,51.87c0-.75,0-1.49,0-2.24a1.88,1.88,0,0,1,1.81-1.8,1.85,1.85,0,0,1,2,1.61,23.13,23.13,0,0,1,0,4.85,1.81,1.81,0,0,1-2.08,1.59A1.9,1.9,0,0,1,38.62,54c0-.07,0-.13,0-.2V51.87Z"/><path class="cls-1" d="M32.41,51.92c0,.68,0,1.37,0,2a1.91,1.91,0,0,1-2,1.93A1.88,1.88,0,0,1,28.51,54c0-1.39,0-2.79,0-4.18a1.88,1.88,0,0,1,1.89-1.94,1.92,1.92,0,0,1,2,1.86c.06.74,0,1.49,0,2.23Z"/></svg>