<svg id="design" xmlns="http://www.w3.org/2000/svg" viewBox="0 0 100 100"><defs><style>.cls-1{fill:#222;}.cls-2{fill:#886ff9;}</style></defs><path class="cls-1" d="M2.54,0A2.65,2.65,0,0,1,3.93,2.65q0,46.13,0,92.27v1.14H33.23c.24-.32.12-.69.12-1q0-12.88,0-25.76c0-2,.62-2.59,2.55-2.59q5.27,0,10.54,0c1.91,0,2.57.67,2.57,2.58V96.06H76.38a2.2,2.2,0,0,0,.11-1.16q0-26.36,0-52.72c0-.32,0-.65,0-1a1.85,1.85,0,0,1,2-2c3.91,0,7.81,0,11.72,0a1.9,1.9,0,0,1,2,1.88c0,.32,0,.65,0,1v54c1.76,0,3.48.06,5.19,0A2.56,2.56,0,0,1,100,97.46v1A2.34,2.34,0,0,1,98.44,100H1.56A2.34,2.34,0,0,1,0,98.44V1.56A2.34,2.34,0,0,1,1.56,0ZM88.21,96.05V43.19H80.44V96.05ZM45.09,70.63H37.3V96h7.79Z"/><path class="cls-2" d="M70.53,96.06H54.88V53H70.53Z"/><path class="cls-1" d="M59.49,35.45l-3.25-.64a1.82,1.82,0,0,1-1.56-1.54A1.86,1.86,0,0,1,56.76,31c2.76.43,5.51,1,8.25,1.51a1.74,1.74,0,0,1,1.4,2c-.28,2.75-.59,5.5-1,8.24a1.86,1.86,0,0,1-2.09,1.6,1.94,1.94,0,0,1-1.72-2.12c.08-1.1.23-2.2.34-3.28-.37-.11-.53.15-.72.3L20.91,69l-.47.35a2,2,0,1,1-2.31-3.14L28,58.88l30.61-22.6C58.91,36.06,59.29,35.91,59.49,35.45Z"/><path class="cls-2" d="M27.37,96.06H11.72V80.72c.33-.36.68-.26,1-.26,4.55,0,9.11,0,13.66,0,.86,0,1,.3,1,1.07C27.35,86.36,27.37,91.21,27.37,96.06Z"/><path class="cls-2" d="M100,17.36c-.4,1.14-.49,2.35-.94,3.47-2.35,5.77-6.55,9.19-12.75,10A15.49,15.49,0,0,1,82.23.16c.15,0,.31,0,.41-.16H86.2a1.1,1.1,0,0,0,.26.14,15.33,15.33,0,0,1,12.6,10c.47,1.17.58,2.43.94,3.63Z"/><path class="cls-1" d="M89.05,9A5,5,0,0,0,84.54,6h0a4.91,4.91,0,0,0-4.17,2.29,1.83,1.83,0,0,0,.44,2.54,1.77,1.77,0,0,0,2.46-.42l.14-.19a1.94,1.94,0,0,1,.23-.27,1.24,1.24,0,0,1,1.7,0,1.22,1.22,0,0,1,.19,1.74,3.43,3.43,0,0,1-.43.42l-.22.19a6.35,6.35,0,0,0-2.16,4.84,1.77,1.77,0,0,0,1.69,1.78h.1a1.91,1.91,0,0,0,1.25-.48,1.48,1.48,0,0,0,.5-1.05,3.92,3.92,0,0,1,1.63-3A4.78,4.78,0,0,0,89.05,9Z"/><path class="cls-1" d="M84.43,21.46a1.8,1.8,0,0,0,.07,3.59h0a1.8,1.8,0,1,0-.09-3.59Z"/></svg>