<svg xmlns="http://www.w3.org/2000/svg" xmlns:xlink="http://www.w3.org/1999/xlink" width="99.579" height="99.578" viewBox="0 0 99.579 99.578"><defs><style>.a{fill:url(#a);}.b{fill:#fff;}.c{filter:url(#b);}</style><linearGradient id="a" x1="1" y1="0.095" x2="0" y2="0.937" gradientUnits="objectBoundingBox"><stop offset="0" stop-color="#2a3662"/><stop offset="1" stop-color="#02496d"/></linearGradient><filter id="b" x="0" y="0" width="99.579" height="99.578" filterUnits="userSpaceOnUse"><feOffset dy="3" input="SourceAlpha"/><feGaussianBlur stdDeviation="3" result="c"/><feFlood flood-opacity="0.161"/><feComposite operator="in" in2="c"/><feComposite in="SourceGraphic"/></filter></defs><g transform="translate(-768.021 -3766.556)"><g class="c" transform="matrix(1, 0, 0, 1, 768.02, 3766.56)"><path class="a" d="M270.9,706h0a40.794,40.794,0,0,1-40.789-40.789h0A40.794,40.794,0,0,1,270.9,624.418h0a40.794,40.794,0,0,1,40.789,40.789h0A40.794,40.794,0,0,1,270.9,706Z" transform="translate(-221.11 -618.42)"/></g><g transform="translate(801.466 3788.874)"><path class="b" d="M245.792,679.364a2.3,2.3,0,0,1-1.588-1.382,2.653,2.653,0,0,1-.158-.93c.114-3.057.253-6.11.378-9.164.117-2.817.231-5.634.326-8.451a.82.82,0,0,0-.256-.557,16.3,16.3,0,0,1-2.254-21.692,16.287,16.287,0,0,1,22.8-3.625,16.006,16.006,0,0,1,5.974,8.245,15.784,15.784,0,0,1,.544,7.639,16.255,16.255,0,0,1-5.169,9.444.834.834,0,0,0-.245.563c.139,3.676.3,7.353.449,11.027.09,2.181.182,4.362.261,6.54a2.331,2.331,0,0,1-1.653,2.344h-.957a12.075,12.075,0,0,1-1.343-.868c-1.74-1.468-3.453-2.964-5.178-4.452l-2.276-1.955c-1.735,1.5-3.415,2.983-5.142,4.413a17.791,17.791,0,0,1-3.649,2.861Zm9.659-45.7a13.1,13.1,0,1,0,13.1,13.129A13.115,13.115,0,0,0,255.451,633.664Zm-7.522,27.625-.563,13.466c.237-.188.364-.283.481-.386q2.912-2.509,5.825-5.02c.131-.114.267-.226.4-.334a2.032,2.032,0,0,1,2.749.014c2.029,1.719,4.035,3.462,6.053,5.194.185.161.375.313.653.544l-.566-13.477A16.541,16.541,0,0,1,247.929,661.289Z" transform="translate(-239.103 -630.418)"/><path class="b" d="M248.267,641.889a2.15,2.15,0,0,1,.25-.356q3.235-3.251,6.483-6.485a1.632,1.632,0,0,1,2.379-.133,1.587,1.587,0,0,1,.185,2.088,3.138,3.138,0,0,1-.348.392q-3.879,3.883-7.766,7.766a1.666,1.666,0,0,1-2.689-.022q-2.031-2.056-4.054-4.117a1.622,1.622,0,1,1,2.281-2.284C246.051,639.762,247.116,640.785,248.267,641.889Z" transform="translate(-233.916 -623.47)"/></g></g></svg>