<svg xmlns="http://www.w3.org/2000/svg" xmlns:xlink="http://www.w3.org/1999/xlink" width="99.579" height="99.579" viewBox="0 0 99.579 99.579"><defs><style>.a{fill:url(#a);}.b{fill:#fff;}.c{filter:url(#b);}</style><linearGradient id="a" x1="1" y1="0.095" x2="0" y2="0.937" gradientUnits="objectBoundingBox"><stop offset="0" stop-color="#2a3662"/><stop offset="1" stop-color="#02496d"/></linearGradient><filter id="b" x="0" y="0" width="99.579" height="99.579" filterUnits="userSpaceOnUse"><feOffset dy="3" input="SourceAlpha"/><feGaussianBlur stdDeviation="3" result="c"/><feFlood flood-opacity="0.161"/><feComposite operator="in" in2="c"/><feComposite in="SourceGraphic"/></filter></defs><g transform="translate(-1126.758 -4021.166)"><g class="c" transform="matrix(1, 0, 0, 1, 1126.76, 4021.17)"><path class="a" d="M402.826,799.628h0a40.794,40.794,0,0,1-40.789-40.789h0a40.794,40.794,0,0,1,40.789-40.789h0a40.794,40.794,0,0,1,40.789,40.789h0A40.794,40.794,0,0,1,402.826,799.628Z" transform="translate(-353.04 -712.05)"/></g><g transform="translate(1152.073 4049.199)"><path class="b" d="M368.037,753.169c.623-1.64,1.254-3.274,1.865-4.917q2.957-7.921,5.9-15.848c.054-.147.1-.3.174-.495-.277,0-.511,0-.745,0a1.44,1.44,0,1,1,.008-2.88q6.334-.008,12.664.005a.7.7,0,0,0,.745-.459,4.281,4.281,0,0,1,7.745.062.592.592,0,0,0,.639.394q6.355-.012,12.71,0a1.44,1.44,0,0,1,.389,2.842,6.187,6.187,0,0,1-1.107.011c.071.209.12.356.171.5q3.761,10.1,7.532,20.2a5.676,5.676,0,0,1-.082,3.532,10.023,10.023,0,0,1-19.663-1.259,5.072,5.072,0,0,1,.258-2.534q3.745-9.953,7.434-19.93c.054-.144.1-.294.169-.484h-3.432c-1.466,0-2.931.008-4.4-.005a.56.56,0,0,0-.612.367,4.29,4.29,0,0,1-7.813-.008c-.1-.207-.171-.364-.468-.362-2.581.016-5.161.008-7.742.011a1.627,1.627,0,0,0-.22.03c.533,1.43,1.052,2.833,1.574,4.237q3.084,8.26,6.162,16.52a5.557,5.557,0,0,1-.141,3.486,10.022,10.022,0,0,1-19.628-1.21,2.966,2.966,0,0,0-.1-.364Zm16.555-1.077-6.466-17.349-.109.011-6.461,17.338ZM407,734.749h-.109l-6.458,17.333h13.028Zm-21.964,20.27H371.11a7.073,7.073,0,0,0,6.991,5.743C381.446,760.778,384.769,758,385.032,755.018Zm28.871,0H399.978a7.067,7.067,0,0,0,6.94,5.743C410.278,760.8,413.623,758.036,413.9,755.018ZM392.519,731.91a1.441,1.441,0,1,0-1.444-1.43A1.485,1.485,0,0,0,392.519,731.91Z" transform="translate(-368.037 -726.151)"/></g></g></svg>