<svg xmlns="http://www.w3.org/2000/svg" xmlns:xlink="http://www.w3.org/1999/xlink" width="99.579" height="99.579" viewBox="0 0 99.579 99.579"><defs><style>.a{fill:url(#a);}.b{fill:#fff;}.c{filter:url(#b);}</style><linearGradient id="a" x1="1" y1="0.095" x2="0" y2="0.937" gradientUnits="objectBoundingBox"><stop offset="0" stop-color="#2a3662"/><stop offset="1" stop-color="#02496d"/></linearGradient><filter id="b" x="0" y="0" width="99.579" height="99.579" filterUnits="userSpaceOnUse"><feOffset dy="3" input="SourceAlpha"/><feGaussianBlur stdDeviation="3" result="c"/><feFlood flood-opacity="0.161"/><feComposite operator="in" in2="c"/><feComposite in="SourceGraphic"/></filter></defs><g transform="translate(-459.891 -4021.166)"><g class="c" transform="matrix(1, 0, 0, 1, 459.89, 4021.17)"><path class="a" d="M157.59,799.628h0A40.8,40.8,0,0,1,116.8,758.838h0a40.8,40.8,0,0,1,40.789-40.789h0a40.794,40.794,0,0,1,40.789,40.789h0A40.794,40.794,0,0,1,157.59,799.628Z" transform="translate(-107.8 -712.05)"/></g><g transform="translate(492.32 4043.481)"><path class="b" d="M144.044,724.049c1.1.2,2.214.337,3.293.615a16.8,16.8,0,0,1,7.715,4.378,16.628,16.628,0,0,1,4.767,8.753,16.831,16.831,0,0,1-8.269,17.858.952.952,0,0,0-.582,1c.043.859.014,1.721.014,2.581a1.819,1.819,0,0,1-2.075,2.026c-2.086.008-4.171,0-6.257,0q-3.006,0-6.01,0a1.867,1.867,0,0,1-2.146-2.118c0-.925-.014-1.849.005-2.771a.6.6,0,0,0-.359-.6,16.989,16.989,0,0,1-7.633-8.821,16.09,16.09,0,0,1-1.055-6.929,16.45,16.45,0,0,1,3.927-9.776,16.949,16.949,0,0,1,9.3-5.7c.927-.218,1.879-.332,2.82-.495Zm3.315,33.638c0-.851.03-1.648-.008-2.442a2.018,2.018,0,0,1,1.33-2.11,13.436,13.436,0,0,0,7.532-14.825,12.575,12.575,0,0,0-4.4-7.359,13.345,13.345,0,0,0-13.262-2.659,12.981,12.981,0,0,0-9.3,10.562,12.52,12.52,0,0,0,1.585,8.789,13.334,13.334,0,0,0,5.993,5.5,2.089,2.089,0,0,1,1.327,2.124c-.016.685-.005,1.37,0,2.056a3.576,3.576,0,0,0,.038.367Z" transform="translate(-125.417 -724.049)"/><path class="b" d="M136.131,738.607c1.678,0,3.356-.008,5.031,0a1.774,1.774,0,0,1,1.686,1.224,1.663,1.663,0,0,1-.655,1.942,2.163,2.163,0,0,1-1.082.351c-3.323.027-6.643.022-9.966.014a1.768,1.768,0,1,1,0-3.532c1.661-.014,3.323,0,4.984,0Z" transform="translate(-118.759 -699.031)"/><path class="b" d="M134.252,744.285c-.7,0-1.4.008-2.1,0a1.764,1.764,0,1,1-.011-3.527q2.129-.016,4.253,0a1.764,1.764,0,1,1,.008,3.527C135.685,744.293,134.97,744.285,134.252,744.285Z" transform="translate(-116.916 -695.341)"/></g></g></svg>