<svg xmlns="http://www.w3.org/2000/svg" xmlns:xlink="http://www.w3.org/1999/xlink" width="99.579" height="99.578" viewBox="0 0 99.579 99.578"><defs><style>.a{fill:url(#a);}.b{fill:#fff;}.c{filter:url(#b);}</style><linearGradient id="a" x1="1" y1="0.095" x2="0" y2="0.937" gradientUnits="objectBoundingBox"><stop offset="0" stop-color="#2a3662"/><stop offset="1" stop-color="#02496d"/></linearGradient><filter id="b" x="0" y="0" width="99.579" height="99.578" filterUnits="userSpaceOnUse"><feOffset dy="3" input="SourceAlpha"/><feGaussianBlur stdDeviation="3" result="c"/><feFlood flood-opacity="0.161"/><feComposite operator="in" in2="c"/><feComposite in="SourceGraphic"/></filter></defs><g transform="translate(-275.887 -3766.556)"><g class="c" transform="matrix(1, 0, 0, 1, 275.89, 3766.56)"><path class="a" d="M89.924,706h0a40.794,40.794,0,0,1-40.789-40.789h0a40.794,40.794,0,0,1,40.789-40.789h0a40.8,40.8,0,0,1,40.789,40.789h0A40.8,40.8,0,0,1,89.924,706Z" transform="translate(-40.14 -618.42)"/></g><g transform="translate(301.486 3789.141)"><path class="b" d="M79.457,678.926a24.212,24.212,0,0,1-2.942-.179,22.962,22.962,0,0,1-11.772-4.783c-7.652-6.132-10.706-14.13-9.08-23.766a23.018,23.018,0,0,1,8.949-14.63A23.4,23.4,0,0,1,75.2,630.9c.582-.1,1.164-.18,1.749-.261l.884-.122,3.209,0a3.457,3.457,0,0,0,.424.092l.84.1c.555.063,1.1.125,1.648.231a23.976,23.976,0,0,1,13.286,7.391,23.691,23.691,0,0,1,6,12.174c.1.6.185,1.207.266,1.811l.111.816,0,3.211-.09.365c-.1.527-.177,1.058-.261,1.585a25.661,25.661,0,0,1-.65,3.3A24.161,24.161,0,0,1,79.457,678.926Zm-.041-45.146a21,21,0,0,0-20.944,20.93,20.885,20.885,0,0,0,20.879,20.955,20.943,20.943,0,1,0,.065-41.885Z" transform="translate(-55.239 -630.517)"/><path class="b" d="M70.347,648.854a10.947,10.947,0,0,1-9.539-5.721,6.359,6.359,0,0,1-.432-.911,1.122,1.122,0,0,1,1.031-1.55,1.038,1.038,0,0,1,.946.587,9.751,9.751,0,0,0,2.053,2.912,9.143,9.143,0,0,0,5.433,2.363c.324.03.644.046.963.046a9.23,9.23,0,0,0,4.609-1.218,8.621,8.621,0,0,0,3.426-3.576l.228-.459a1.161,1.161,0,0,1,1.009-.639,1.079,1.079,0,0,1,.47.109,1.123,1.123,0,0,1,.53,1.506,10.45,10.45,0,0,1-2.874,3.845A11.823,11.823,0,0,1,70.347,648.854Z" transform="translate(-46.559 -613.058)"/><path class="b" d="M63.455,641.22a2.659,2.659,0,0,1-2.589-2.608,2.6,2.6,0,0,1,2.591-2.581,2.573,2.573,0,0,1,2.6,2.564,2.631,2.631,0,0,1-.764,1.852,2.539,2.539,0,0,1-1.808.772Z" transform="translate(-45.565 -621.035)"/><path class="b" d="M68.236,641.218a2.645,2.645,0,0,1-2.6-2.6,2.592,2.592,0,0,1,5.183-.033,2.641,2.641,0,0,1-.767,1.874,2.536,2.536,0,0,1-1.8.756Z" transform="translate(-37.358 -621.035)"/></g></g></svg>