<svg xmlns="http://www.w3.org/2000/svg" xmlns:xlink="http://www.w3.org/1999/xlink" width="99.578" height="99.578" viewBox="0 0 99.578 99.578"><defs><style>.a{fill:url(#a);}.b{fill:#fff;}.c{filter:url(#b);}</style><linearGradient id="a" x1="1" y1="0.095" x2="0" y2="0.937" gradientUnits="objectBoundingBox"><stop offset="0" stop-color="#2a3662"/><stop offset="1" stop-color="#02496d"/></linearGradient><filter id="b" x="0" y="0" width="99.578" height="99.578" filterUnits="userSpaceOnUse"><feOffset dy="3" input="SourceAlpha"/><feGaussianBlur stdDeviation="3" result="c"/><feFlood flood-opacity="0.161"/><feComposite operator="in" in2="c"/><feComposite in="SourceGraphic"/></filter></defs><g transform="translate(-1292.813 -3766.556)"><g class="c" transform="matrix(1, 0, 0, 1, 1292.81, 3766.56)"><path class="a" d="M463.892,706h0A40.794,40.794,0,0,1,423.1,665.207h0a40.794,40.794,0,0,1,40.789-40.789h0a40.8,40.8,0,0,1,40.789,40.789h0A40.8,40.8,0,0,1,463.892,706Z" transform="translate(-414.1 -618.42)"/></g><g transform="translate(1318.129 3800.144)"><path class="b" d="M429.1,635.629a1.756,1.756,0,0,1,1.825-1.063q22.667.028,45.336,0a1.622,1.622,0,0,1,1.786,1.768c-.046,3.614-.019,7.228-.019,10.842,0,1.229-.451,1.678-1.675,1.749a6.5,6.5,0,0,0-5.526,3.3c-.046.082-.082.169-.125.261a4.326,4.326,0,0,1,.631,4.737,3.985,3.985,0,0,1-1.724,1.86q-6.93,3.92-13.871,7.829a4.017,4.017,0,0,1-4.272-.063,39.844,39.844,0,0,1-10.6-9.023c-1.3-1.642-2.439-3.418-3.668-5.118a25.056,25.056,0,0,0-1.558-1.99,5.371,5.371,0,0,0-3.573-1.711,6.454,6.454,0,0,0-1.142-.079,1.687,1.687,0,0,1-1.825-1.069Zm2.918,1.824a.58.58,0,0,0-.046.131c0,2.741,0,5.479-.014,8.218,0,.345.2.324.43.351a8.62,8.62,0,0,1,4.2,1.564,14.518,14.518,0,0,1,3.141,3.565c1.21,1.716,2.377,3.47,3.7,5.1a37.9,37.9,0,0,0,9.2,7.821,1.739,1.739,0,0,0,2,.054c4.422-2.518,8.859-5.012,13.289-7.516a1.469,1.469,0,0,0,.351-2.6q-4.055-4.054-8.112-8.106a4.286,4.286,0,0,0-6.363-.005c-.645.636-1.267,1.3-1.933,1.917a4.267,4.267,0,0,1-6.091-.087c-.6-.59-1.194-1.194-1.789-1.789a1.492,1.492,0,0,1,.014-2.431l5.776-5.776c.114-.114.223-.234.386-.405Zm14.8,7.427c.343.326.644.609.944.895a1.435,1.435,0,0,0,2.194,0c.6-.59,1.194-1.194,1.792-1.789a7.156,7.156,0,0,1,10.439.005q2.994,2.99,5.983,5.98c.12.12.245.234.394.375a9.611,9.611,0,0,1,6.573-4.22v-8.683h-18.6a6.135,6.135,0,0,0-2.219.068c-.655.275-1.123,1-1.661,1.542C450.727,640.975,448.8,642.9,446.822,644.88Z" transform="translate(-429.103 -634.563)"/></g></g></svg>