<svg xmlns="http://www.w3.org/2000/svg" xmlns:xlink="http://www.w3.org/1999/xlink" width="99.578" height="99.579" viewBox="0 0 99.578 99.579"><defs><style>.a{fill:url(#a);}.b{fill:#fff;}.c{filter:url(#b);}</style><linearGradient id="a" x1="1" y1="0.095" x2="0" y2="0.937" gradientUnits="objectBoundingBox"><stop offset="0" stop-color="#2a3662"/><stop offset="1" stop-color="#02496d"/></linearGradient><filter id="b" x="0" y="0" width="99.578" height="99.579" filterUnits="userSpaceOnUse"><feOffset dy="3" input="SourceAlpha"/><feGaussianBlur stdDeviation="3" result="c"/><feFlood flood-opacity="0.161"/><feComposite operator="in" in2="c"/><feComposite in="SourceGraphic"/></filter></defs><g transform="translate(-1111.606 -3531.172)"><g class="c" transform="matrix(1, 0, 0, 1, 1111.61, 3531.17)"><path class="a" d="M397.254,619.435h0a40.8,40.8,0,0,1-40.789-40.789h0a40.8,40.8,0,0,1,40.789-40.789h0a40.794,40.794,0,0,1,40.789,40.789h0A40.794,40.794,0,0,1,397.254,619.435Z" transform="translate(-347.46 -531.86)"/></g><path class="b" d="M372.822,590.092a1.591,1.591,0,0,1-.952-.329,1.552,1.552,0,0,1-.647-1.667c.169-1.055.334-2.1.517-3.141l.451-2.605c.462-2.659.922-5.319,1.357-7.976a1.722,1.722,0,0,0-.547-1.322q-4.793-4.7-9.624-9.379a1.841,1.841,0,0,1-.7-1.572,1.584,1.584,0,0,1,1.406-1.449q4.491-.681,9.006-1.319c1.517-.234,2.983-.46,4.454-.642a1.88,1.88,0,0,0,1.564-1.15q1.962-4.034,3.954-8.044l1.923-3.894a1.7,1.7,0,0,1,1.67-1.137,1.665,1.665,0,0,1,1.544,1.12l2.562,5.186q1.676,3.377,3.334,6.768a1.844,1.844,0,0,0,1.542,1.137q4.132.579,8.256,1.186l3.464.5c.593.1,1.139.182,1.689.256a1.559,1.559,0,0,1,1.379,1.147,1.605,1.605,0,0,1-.511,1.8c-3.222,3.144-6.439,6.287-9.675,9.4a1.719,1.719,0,0,0-.552,1.713c.587,3.263,1.148,6.543,1.708,9.828l.536,3.135a2.412,2.412,0,0,1-.315,1.9,1.437,1.437,0,0,1-1.1.5H400.5a2.984,2.984,0,0,1-1.313-.367c-3.94-2.034-7.872-4.112-11.788-6.192a1.646,1.646,0,0,0-.789-.22,1.761,1.761,0,0,0-.791.215c-3.2,1.7-12.055,6.355-12.055,6.355A2.048,2.048,0,0,1,372.822,590.092Zm13.3-39.179c-.144.25-.25.454-.348.639-1.539,3.1-2.98,6.015-4.408,8.946a1.967,1.967,0,0,1-1.607,1.221c-2.015.272-4.033.574-6.045.87l-4.775.715-.392.672.307.511a3.011,3.011,0,0,1,.555.405q3.536,3.422,7.038,6.839a1.794,1.794,0,0,1,.674,1.645c-.049.356-.12.721-.188,1.085l-1.86,10.907,4.457-2.333c2.009-1.05,4.016-2.1,6.015-3.179a2.276,2.276,0,0,1,1.069-.3,2.089,2.089,0,0,1,1.012.288c1.289.7,2.589,1.379,3.889,2.058,0,0,4.076,2.121,5.594,2.926l.862.457-.084-1.409-.4-2.336c-.443-2.627-.887-5.254-1.368-7.88a1.932,1.932,0,0,1,.617-1.909l7.065-6.866a1.579,1.579,0,0,1,.332-.19l.908-.5-.528-.506-.12-.185-.348-.212c-.277-.065-.44-.1-.612-.128l-3.777-.552c-2.037-.3-4.074-.6-6.113-.876a2.122,2.122,0,0,1-1.77-1.341c-1.031-2.154-2.088-4.291-3.143-6.431l-1.123-2.276-.9-1.612Z" transform="translate(774.802 3010.682)"/></g></svg>