<svg xmlns="http://www.w3.org/2000/svg" xmlns:xlink="http://www.w3.org/1999/xlink" width="99.579" height="99.579" viewBox="0 0 99.579 99.579"><defs><style>.a{fill:url(#a);}.b{fill:#fff;}.c{filter:url(#b);}</style><linearGradient id="a" x1="1" y1="0.095" x2="0" y2="0.937" gradientUnits="objectBoundingBox"><stop offset="0" stop-color="#2a3662"/><stop offset="1" stop-color="#02496d"/></linearGradient><filter id="b" x="0" y="0" width="99.579" height="99.579" filterUnits="userSpaceOnUse"><feOffset dy="3" input="SourceAlpha"/><feGaussianBlur stdDeviation="3" result="c"/><feFlood flood-opacity="0.161"/><feComposite operator="in" in2="c"/><feComposite in="SourceGraphic"/></filter></defs><g transform="translate(-462.572 -3531.172)"><g class="c" transform="matrix(1, 0, 0, 1, 462.57, 3531.17)"><path class="a" d="M158.576,619.435h0a40.794,40.794,0,0,1-40.789-40.789h0a40.794,40.794,0,0,1,40.789-40.789h0a40.794,40.794,0,0,1,40.789,40.789h0A40.794,40.794,0,0,1,158.576,619.435Z" transform="translate(-108.79 -531.86)"/></g><g transform="translate(488.434 3563.277)"><path class="b" d="M147.918,582.264a1.583,1.583,0,0,1-1.036-.59l-22.306-22.306c-.789-.789-.783-1.272.016-2.072l2.774-2.776q3.243-3.235,6.472-6.485a1.789,1.789,0,0,1,1.384-.574c2.292.011,12.718.011,12.718.011l6.271,0c2.094,0,4.182,0,6.276-.016a2.05,2.05,0,0,1,1.618.68q3.239,3.28,6.5,6.526l2.668,2.662c.759.756.756,1.273-.011,2.037l-22.306,22.309A1.617,1.617,0,0,1,147.918,582.264Zm-2.268-5.052-5.074-17.757H127.887Zm4.558-.09,17.656-17.656H155.254Zm-2.766-1.624h.821l.245-.4,4.462-15.633H142.86Zm-11.63-25.833a1.448,1.448,0,0,0-.925.449c-1.594,1.577-5.836,5.817-5.836,5.817-.073.079-.881,1.079-.881,1.079l.938.22.348.024s8.549,0,10.687-.016a1.441,1.441,0,0,0,1.066-.62c1.022-1.5,2.029-3.013,3.032-4.528l1.585-2.436h-4.658C139.363,549.654,137.587,549.657,135.811,549.665Zm15.674,2.268c1.1,1.653,2.17,3.255,3.255,4.846a1.319,1.319,0,0,0,1.039.465c2.1.008,10.5.011,10.5.011l1.341-.152-.506-.8c-.218-.239-.307-.337-.4-.432,0,0-4.351-4.351-5.7-5.716a1.62,1.62,0,0,0-1.243-.5l-9.806.005Zm-8.03,5.292h8.922l-4.462-6.695Z" transform="translate(-123.988 -547.457)"/></g></g></svg>