<svg xmlns="http://www.w3.org/2000/svg" width="91.001" height="100.001" viewBox="0 0 91.001 100.001"><defs><style>.a{fill:#e2e5e6;}.b{fill:#adb6cf;}.c{fill:#fff;}.d{fill:#11294d;}</style></defs><g transform="translate(-682.099 -78.282)"><g transform="translate(682.099 78.282)"><circle class="a" cx="16.581" cy="16.581" r="16.581" transform="translate(0 53.811)"/><circle class="a" cx="14.213" cy="14.213" r="14.213" transform="translate(47.527 71.575)"/><circle class="a" cx="23.688" cy="23.688" r="23.688" transform="translate(43.625 0)"/><g transform="translate(9.477 13.836)"><path class="b" d="M5,0H70.612a5,5,0,0,1,5,5V7.106H0V5A5,5,0,0,1,5,0Z" transform="translate(0.888 69.582)"/><path class="c" d="M5,0H61.136a5,5,0,0,1,5,5V7.106H0V5A5,5,0,0,1,5,0Z" transform="translate(0.888 69.582)"/><path class="d" d="M766.183,153.189H690.568a.887.887,0,0,1-.887-.888v-1.185a6.809,6.809,0,0,1,6.794-6.81h63.8a6.81,6.81,0,0,1,6.794,6.81V152.3a.887.887,0,0,1-.885.889Zm-74.73-1.776H765.3v-.3a5.034,5.034,0,0,0-5.022-5.034h-63.8a5.034,5.034,0,0,0-5.021,5.034Z" transform="translate(-689.681 -75.612)"/><path class="c" d="M708.319,141.659a27.241,27.241,0,0,1,0-38.524L703.3,98.11a34.355,34.355,0,0,0,16,57.624v-7.383a27.128,27.128,0,0,1-10.981-6.692Z" transform="translate(-688.793 -87.161)"/><path class="b" d="M705.757,143.688a31.45,31.45,0,0,0,12.714,7.756v-3.568A27.25,27.25,0,0,1,707.5,102.66l-2.651-2.651a31.559,31.559,0,0,0,.908,43.679Z" transform="translate(-687.972 -86.686)"/><path class="d" d="M719.466,156.8a.885.885,0,0,1-.214-.026A35.242,35.242,0,0,1,702.841,97.66a.887.887,0,0,1,1.256,0l5.025,5.024a.889.889,0,0,1,0,1.256,26.383,26.383,0,0,0,0,37.269,26.05,26.05,0,0,0,10.614,6.474.888.888,0,0,1,.619.846v7.381a.887.887,0,0,1-.887.889ZM703.477,99.551a33.469,33.469,0,0,0,15.1,55.2V149.17a28.225,28.225,0,0,1-10.713-6.705h0a28.164,28.164,0,0,1-.619-39.143Z" transform="translate(-688.967 -87.339)"/><path class="c" d="M4,0h8.581a4,4,0,0,1,4,4V33.347a1,1,0,0,1-1,1H1a1,1,0,0,1-1-1V4A4,4,0,0,1,4,0Z" transform="matrix(0.707, -0.707, 0.707, 0.707, 3.61, 15.336)"/><path class="b" d="M726.661,115.3l-20.1-20.1a4.736,4.736,0,0,0-6.7,0L696.9,98.16a4.738,4.738,0,0,1,6.7,0l17.139,17.14a1.185,1.185,0,0,1,0,1.675l-7.926,7.926,2.124,2.124a1.185,1.185,0,0,0,1.675,0l10.05-10.05a1.184,1.184,0,0,0,0-1.675Z" transform="translate(-687.876 -88.236)"/><path class="d" d="M716.641,128.434a2.068,2.068,0,0,1-1.466-.606l-20.1-20.1a5.632,5.632,0,0,1,0-7.956l5.025-5.025a5.627,5.627,0,0,1,7.956,0l20.1,20.1a2.074,2.074,0,0,1,0,2.931l-10.049,10.05A2.062,2.062,0,0,1,716.641,128.434ZM704.078,94.875A3.821,3.821,0,0,0,701.357,96l-5.025,5.025a3.853,3.853,0,0,0,0,5.444l20.1,20.1a.251.251,0,0,0,.419,0l10.05-10.05a.3.3,0,0,0,0-.419L706.8,96a3.824,3.824,0,0,0-2.722-1.125Z" transform="translate(-688.744 -88.414)"/><rect class="b" width="7.698" height="8.291" transform="translate(0.888 6.333) rotate(-45)"/><path class="c" d="M0,0H5.186V4.778a1,1,0,0,1-1,1H0Z" transform="matrix(0.707, -0.707, 0.707, 0.707, 0.888, 6.333)"/><path class="d" d="M696.432,102.431a.886.886,0,0,1-.629-.26l-5.862-5.861a.89.89,0,0,1,0-1.256l5.444-5.445a.916.916,0,0,1,1.256,0l5.862,5.864a.889.889,0,0,1,0,1.256l-5.444,5.443A.885.885,0,0,1,696.432,102.431Zm-4.606-6.75,4.606,4.606L700.62,96.1l-4.606-4.606Z" transform="translate(-689.681 -89.349)"/><path class="c" d="M714.009,120.379l6.7-6.7,3.6,5.046a1.184,1.184,0,0,1-.126,1.526l-3.606,3.606a1.182,1.182,0,0,1-1.525.125Z" transform="translate(-683.684 -83.269)"/><path class="b" d="M723.555,118.725l-3.6-5.046-2.073,2.072,2.415,3.383a.592.592,0,0,1-.064.762l-3.19,3.189,1.258.9a1.183,1.183,0,0,0,1.525-.125l3.606-3.606a1.185,1.185,0,0,0,.123-1.529Z" transform="translate(-682.932 -83.269)"/><path class="d" d="M719.922,125.273a2.077,2.077,0,0,1-1.206-.389l-5.045-3.6a.888.888,0,0,1-.111-1.351l6.7-6.7a.874.874,0,0,1,.7-.258.89.89,0,0,1,.65.369l3.6,5.046a2.065,2.065,0,0,1-.221,2.67l-3.606,3.606A2.068,2.068,0,0,1,719.922,125.273Zm-4.365-4.829,4.193,2.994a.3.3,0,0,0,.381-.031l3.606-3.606a.294.294,0,0,0,.032-.38l-2.995-4.194Z" transform="translate(-683.862 -83.447)"/><path class="d" d="M737.472,130.923H720.891a.889.889,0,0,1,0-1.777h16.581a.889.889,0,0,1,0,1.777Z" transform="translate(-682.221 -79.402)"/><path class="c" d="M714.079,134.831v20.135H730.66V140.752a1.186,1.186,0,0,1,1.185-1.185h9.476a5.922,5.922,0,0,0,5.923-5.922h-31.98A1.185,1.185,0,0,0,714.079,134.831Z" transform="translate(-683.711 -78.277)"/><path class="b" d="M740.348,133.646a5.918,5.918,0,0,1-5.422,3.553H729a3.555,3.555,0,0,0-3.554,3.554v14.214h2.369V140.752A1.186,1.186,0,0,1,729,139.567h9.476a5.921,5.921,0,0,0,5.923-5.921Z" transform="translate(-680.883 -78.277)"/><path class="d" d="M730.839,156.031H714.258a.888.888,0,0,1-.889-.888V135.009a2.075,2.075,0,0,1,2.072-2.072h31.98a.888.888,0,0,1,.887.889,6.818,6.818,0,0,1-6.81,6.81h-9.476a.3.3,0,0,0-.3.3V155.15a.888.888,0,0,1-.883.881Zm-15.694-1.776h14.8V140.93a2.075,2.075,0,0,1,2.073-2.072H741.5a5.041,5.041,0,0,0,4.955-4.145H715.441a.3.3,0,0,0-.3.3Z" transform="translate(-683.89 -78.455)"/><circle class="d" cx="1.184" cy="1.184" r="1.184" transform="translate(42.236 71.951)"/><circle class="c" cx="2.961" cy="2.961" r="2.961" transform="translate(35.733 61.883)"/><path class="d" d="M721.482,145.844a3.849,3.849,0,1,1,3.85-3.849A3.849,3.849,0,0,1,721.482,145.844Zm0-5.921A2.073,2.073,0,1,0,723.554,142,2.073,2.073,0,0,0,721.482,139.923Z" transform="translate(-682.787 -77.152)"/><circle class="d" cx="1.184" cy="1.184" r="1.184" transform="translate(32.784 71.951)"/><circle class="c" cx="6.514" cy="6.514" r="6.514" transform="translate(3.85 16.88)"/><path class="b" d="M700.642,103.026a6.5,6.5,0,0,1-6.819,10.23,6.509,6.509,0,1,0,6.819-10.23Z" transform="translate(-688.646 -85.932)"/><path class="d" d="M699.452,116.949a7.4,7.4,0,1,1,7.4-7.4,7.4,7.4,0,0,1-7.4,7.4Zm0-13.028a5.626,5.626,0,1,0,5.626,5.626,5.626,5.626,0,0,0-5.626-5.626Z" transform="translate(-689.089 -86.153)"/><circle class="d" cx="1.184" cy="1.184" r="1.184" transform="translate(9.18 22.21)"/><path class="b" d="M754.348,90.062H730.663a2.369,2.369,0,0,0-2.369,2.369v41.451l11.843-9.476h14.211a2.368,2.368,0,0,0,2.369-2.369V92.431A2.368,2.368,0,0,0,754.348,90.062Z" transform="translate(-680.216 -89.173)"/><path class="c" d="M753.163,90.062h-22.5a2.369,2.369,0,0,0-2.369,2.369V127.25l7.851-6.283a5.924,5.924,0,0,1,3.7-1.3h10.949a2.368,2.368,0,0,0,2.369-2.369Z" transform="translate(-680.216 -89.173)"/><path class="d" d="M728.473,134.949a.888.888,0,0,1-.889-.889V92.609a3.261,3.261,0,0,1,3.258-3.258h23.684a3.261,3.261,0,0,1,3.257,3.258v29.606a3.261,3.261,0,0,1-3.257,3.258h-13.9l-11.6,9.283A.9.9,0,0,1,728.473,134.949Zm2.369-43.821a1.483,1.483,0,0,0-1.481,1.481v39.6l10.4-8.322a.887.887,0,0,1,.555-.194h14.211a1.482,1.482,0,0,0,1.481-1.481v-29.6a1.483,1.483,0,0,0-1.481-1.481Z" transform="translate(-680.394 -89.351)"/><path class="d" d="M747.9,97.761h-7.108a.888.888,0,1,1,0-1.776H747.9a.888.888,0,0,1,0,1.776Z" transform="translate(-677.315 -87.692)"/><path class="d" d="M737.945,97.761h-4.736a.888.888,0,1,1,0-1.776h4.736a.888.888,0,1,1,0,1.776Z" transform="translate(-679.163 -87.692)"/><path class="d" d="M747.184,102.5H743.63a.888.888,0,0,1,0-1.776h3.554a.888.888,0,1,1,0,1.776Z" transform="translate(-676.604 -86.508)"/><path class="d" d="M741.5,102.5h-8.29a.888.888,0,0,1,0-1.776h8.29a.888.888,0,0,1,0,1.776Z" transform="translate(-679.17 -86.508)"/><path class="d" d="M747.9,107.237h-7.106a.888.888,0,0,1,0-1.776H747.9a.888.888,0,0,1,0,1.776Z" transform="translate(-677.315 -85.323)"/><path class="d" d="M737.946,107.237h-4.737a.888.888,0,0,1,0-1.776h4.737a.888.888,0,1,1,0,1.776Z" transform="translate(-679.163 -85.323)"/><path class="d" d="M745.051,111.974H733.209a.888.888,0,0,1,0-1.776h11.842a.888.888,0,1,1,0,1.776Z" transform="translate(-679.21 -84.139)"/><path class="d" d="M748.367,140.4H743.63a.888.888,0,0,1,0-1.776h4.737a.888.888,0,0,1,0,1.776Z" transform="translate(-676.604 -77.033)"/><path class="d" d="M745.525,143.24a.889.889,0,0,1-.889-.887v-4.738a.888.888,0,1,1,1.776,0v4.738a.888.888,0,0,1-.887.887Z" transform="translate(-676.131 -77.507)"/><path class="d" d="M752.157,131.869H747.42a.888.888,0,0,1,0-1.776h4.737a.888.888,0,0,1,0,1.776Z" transform="translate(-675.657 -79.165)"/><path class="d" d="M749.315,134.712a.888.888,0,0,1-.888-.889v-4.737a.888.888,0,0,1,1.776,0v4.737a.888.888,0,0,1-.888.889Z" transform="translate(-675.183 -79.639)"/><path class="d" d="M742.681,125.236h-4.738a.889.889,0,0,1,0-1.777h4.738a.889.889,0,1,1,0,1.777Z" transform="translate(-677.994 -80.824)"/><path class="d" d="M739.839,128.079a.889.889,0,0,1-.888-.889v-4.738a.888.888,0,0,1,1.776,0v4.738a.889.889,0,0,1-.888.889Z" transform="translate(-677.517 -81.298)"/><path class="d" d="M724.677,99.65H719.94a.888.888,0,1,1,0-1.776h4.737a.888.888,0,0,1,0,1.776Z" transform="translate(-682.436 -87.22)"/><path class="d" d="M721.835,102.493a.889.889,0,0,1-.889-.887V96.868a.889.889,0,0,1,1.778,0v4.738A.889.889,0,0,1,721.835,102.493Z" transform="translate(-681.962 -87.694)"/></g></g></g></svg>