<svg xmlns="http://www.w3.org/2000/svg" viewBox="0 0 23.18 20.4"><path d="M9.2,16.05H8.9a7,7,0,0,1-2.78-.56A7.52,7.52,0,0,1,3.84,14,7.28,7.28,0,0,1,2.3,11.68,6.84,6.84,0,0,1,1.74,8.9,6.81,6.81,0,0,1,2.3,6.12,7.23,7.23,0,0,1,6.12,2.3,6.81,6.81,0,0,1,8.9,1.74a6.84,6.84,0,0,1,2.78.56A7.28,7.28,0,0,1,14,3.84,7.52,7.52,0,0,1,15.5,6.12a7,7,0,0,1,.56,2.78,7.15,7.15,0,0,1-.07,1l0,.31.3,0,.56,0c.22,0,.43,0,.65,0l.24,0,0-.24c0-.41.07-.74.07-1a8.88,8.88,0,0,0-1.22-4.5,9,9,0,0,0-1.39-1.79A9,9,0,0,0,11.27.32a8.94,8.94,0,0,0-4.74,0,8.74,8.74,0,0,0-2.13.9A9.08,9.08,0,0,0,1.22,4.4,8.88,8.88,0,0,0,0,8.9a8.86,8.86,0,0,0,.32,2.37,9,9,0,0,0,2.29,3.92A9,9,0,0,0,4.4,16.58,8.88,8.88,0,0,0,8.9,17.8l.21,0h.38v-.24l-.25-.06h.25a7.89,7.89,0,0,1,.09-1.13L9.63,16l-.31,0Z" fill="#f26624"/><polygon points="9.15 3.71 8.9 3.71 7.66 3.71 7.41 3.71 7.41 3.96 7.41 10.13 7.41 10.38 7.66 10.38 12.61 10.38 12.86 10.38 12.86 10.13 12.86 8.9 12.86 8.65 12.61 8.65 9.15 8.65 9.15 3.96 9.15 3.71" fill="#f26624"/><polygon points="21.29 10.39 15.54 16.76 13.46 15.05 11.64 16.95 13.83 18.77 15.8 20.4 23.18 12.08 21.29 10.39" fill="#f26624"/></svg>