<svg xmlns="http://www.w3.org/2000/svg" width="96.999" height="99.999" viewBox="0 0 96.999 99.999"><defs><style>.a{fill:#e2e5e6;}.b{fill:#adb6cf;}.c{fill:#fff;}.d{fill:#11294d;}</style></defs><g transform="translate(-642.004 -273.28)"><g transform="translate(642.004 273.28)"><circle class="a" cx="17.778" cy="17.778" r="17.778" transform="translate(36.408 64.443)"/><circle class="a" cx="15.238" cy="15.238" r="15.238" transform="translate(0 33.97)"/><circle class="a" cx="25.397" cy="25.397" r="25.397" transform="translate(46.205 0)"/><g transform="translate(6.984 7.617)"><rect class="b" width="65.323" height="40.635" transform="translate(8.581 41.592)"/><path class="c" d="M0,0H61.514V34.825a2,2,0,0,1-2,2H0Z" transform="translate(8.58 41.591)"/><path class="d" d="M719.979,354.422H654.638a.947.947,0,0,1-.943-.953V312.838a.947.947,0,0,1,.943-.953H719.98a.947.947,0,0,1,.943.953V353.47a.947.947,0,0,1-.944.952Zm-64.4-1.9h63.458V313.79H655.579Z" transform="translate(-646.066 -271.245)"/><path class="d" d="M729.12,346.3H648.544a.952.952,0,0,1,0-1.9H729.12a.952.952,0,0,1,0,1.9Z" transform="translate(-647.59 -263.118)"/><path class="b" d="M0,0H20.317V2.465a6,6,0,0,1-6,6H6a6,6,0,0,1-6-6Z" transform="translate(61.204 41.591)"/><path class="c" d="M704.743,321.111h0a7.641,7.641,0,0,1-7.62-7.62v-.845h15.239v.845A7.641,7.641,0,0,1,704.743,321.111Z" transform="translate(-635.92 -271.055)"/><path class="d" d="M710.012,322.254h-5.079a8.581,8.581,0,0,1-8.571-8.572v-.845a.952.952,0,0,1,.953-.952h20.317a.953.953,0,0,1,.953.952v.845A8.581,8.581,0,0,1,710.012,322.254Zm-11.745-8.465a6.676,6.676,0,0,0,6.666,6.56h5.079a6.674,6.674,0,0,0,6.666-6.56Z" transform="translate(-636.11 -271.245)"/><path class="b" d="M0,0H20.317V2.465a6,6,0,0,1-6,6H6a6,6,0,0,1-6-6Z" transform="translate(41.128 41.591)"/><path class="c" d="M688.489,321.111h0a7.642,7.642,0,0,1-7.62-7.62v-.845h15.239v.845A7.64,7.64,0,0,1,688.489,321.111Z" transform="translate(-639.708 -271.055)"/><path class="d" d="M693.759,322.254H688.68a8.582,8.582,0,0,1-8.573-8.572v-.845a.953.953,0,0,1,.953-.952h20.318a.952.952,0,0,1,.952.952v.845a8.581,8.581,0,0,1-8.571,8.572Zm-11.745-8.465a6.675,6.675,0,0,0,6.666,6.56h5.079a6.676,6.676,0,0,0,6.666-6.56Z" transform="translate(-639.937 -271.245)"/><path class="b" d="M0,0H20.317V2.465a6,6,0,0,1-6,6H6a6,6,0,0,1-6-6Z" transform="translate(21.039 41.591)"/><path class="c" d="M672.234,321.111h0a7.641,7.641,0,0,1-7.619-7.62v-.845h15.237v.845A7.64,7.64,0,0,1,672.234,321.111Z" transform="translate(-643.559 -271.055)"/><path class="d" d="M677.5,322.254h-5.079a8.581,8.581,0,0,1-8.571-8.572v-.845a.952.952,0,0,1,.953-.952h20.316a.952.952,0,0,1,.952.952v.845A8.581,8.581,0,0,1,677.5,322.254Zm-11.745-8.465a6.676,6.676,0,0,0,6.666,6.56H677.5a6.676,6.676,0,0,0,6.666-6.56Z" transform="translate(-643.763 -271.245)"/><path class="b" d="M0,0H20.317V2.465a6,6,0,0,1-6,6H6a6,6,0,0,1-6-6Z" transform="translate(0.961 41.591)"/><path class="c" d="M655.98,321.111h0a7.641,7.641,0,0,1-7.62-7.62v-.845H663.6v.845a7.641,7.641,0,0,1-7.62,7.62Z" transform="translate(-647.4 -271.055)"/><path class="d" d="M661.249,322.254H656.17a8.581,8.581,0,0,1-8.571-8.572v-.845a.952.952,0,0,1,.953-.952h20.317a.953.953,0,0,1,.953.952v.845a8.581,8.581,0,0,1-8.573,8.572ZM649.5,313.789a6.676,6.676,0,0,0,6.666,6.56h5.079a6.675,6.675,0,0,0,6.666-6.56Z" transform="translate(-647.59 -271.245)"/><path class="b" d="M661.061,302.487l-12.7,12.7H668.68l6.349-12.7Z" transform="translate(-647.4 -273.595)"/><path class="c" d="M661.061,302.487l-12.7,12.7H662.33l7.62-12.7Z" transform="translate(-647.4 -273.595)"/><path class="d" d="M668.87,316.329H648.552a.953.953,0,0,1-.673-1.628l12.7-12.7a.953.953,0,0,1,.674-.279H675.22a.952.952,0,0,1,.851,1.379l-6.349,12.7a.954.954,0,0,1-.852.528Zm-18.019-1.9h17.43l5.4-10.794H661.645Z" transform="translate(-647.59 -273.785)"/><path class="b" d="M706.012,302.487H692.044l6.349,12.7h20.319Z" transform="translate(-637.19 -273.595)"/><path class="c" d="M700.933,302.487h-8.889l6.349,12.7h13.969Z" transform="translate(-637.19 -273.595)"/><path class="d" d="M718.9,316.329H698.585a.954.954,0,0,1-.853-.527l-6.35-12.7a.953.953,0,0,1,.852-1.379H706.2a.948.948,0,0,1,.672.279l12.7,12.7a.953.953,0,0,1-.672,1.628Zm-19.73-1.9H716.6l-10.792-10.8H693.775Z" transform="translate(-637.38 -273.785)"/><path class="b" d="M670.965,302.487l-6.349,12.7h20.317v-12.7Z" transform="translate(-643.577 -273.595)"/><path class="c" d="M670.965,302.487l-6.349,12.7h13.967l1.27-12.7Z" transform="translate(-643.559 -273.595)"/><path class="d" d="M685.124,316.329H664.807a.954.954,0,0,1-.853-1.38l6.35-12.7a.953.953,0,0,1,.852-.526h13.968a.952.952,0,0,1,.953.952v12.7a.953.953,0,0,1-.953.954Zm-18.776-1.9h17.824v-10.8H671.744Z" transform="translate(-643.763 -273.785)"/><path class="b" d="M694.838,302.487H680.87v12.7h20.317Z" transform="translate(-639.743 -273.595)"/><path class="c" d="M689.758,302.487H680.87v12.7h13.967Z" transform="translate(-639.7 -273.595)"/><path class="d" d="M701.378,316.329H681.061a.953.953,0,0,1-.953-.953v-12.7a.952.952,0,0,1,.953-.952h13.967a.951.951,0,0,1,.851.526l6.35,12.7a.953.953,0,0,1-.851,1.38Zm-19.365-1.9h17.824l-5.4-10.794H682.013Z" transform="translate(-639.937 -273.785)"/><rect class="b" width="55.164" height="20.318" transform="translate(13.662 0.952)"/><path class="c" d="M0,0H52.065V14.508a2,2,0,0,1-2,2H0Z" transform="translate(13.35 0.952)"/><path class="d" d="M713.887,301.6H658.7a.946.946,0,0,1-.941-.952V280.326a.946.946,0,0,1,.941-.953h55.186a.946.946,0,0,1,.941.953v20.318a.946.946,0,0,1-.94.956Zm-54.246-1.9h53.3V281.278h-53.3Z" transform="translate(-645.05 -279.373)"/><rect class="c" width="38.096" height="7.619" transform="translate(22.196 21.27)"/><path class="d" d="M703.92,305.152h-38.1a.952.952,0,0,1-.953-.953v-7.62a.953.953,0,0,1,.953-.952h38.1a.953.953,0,0,1,.953.952v7.62a.952.952,0,0,1-.953.953Zm-37.144-1.9h36.191v-5.715H666.776Z" transform="translate(-643.628 -275.31)"/><path class="d" d="M716.934,281.278H656.67a.953.953,0,0,1,0-1.9h60.265a.953.953,0,0,1,0,1.905Z" transform="translate(-645.558 -279.373)"/><path class="d" d="M691.728,286.866H663.792a.952.952,0,1,1,0-1.9h27.936a.952.952,0,0,1,0,1.9Z" transform="translate(-644.034 -277.976)"/><path class="d" d="M701.888,291.946H684.11a.953.953,0,0,1,0-1.9h17.778a.953.953,0,0,1,0,1.905Z" transform="translate(-639.198 -276.706)"/><path class="d" d="M682.586,291.946h-12.7a.953.953,0,1,1,0-1.9h12.7a.953.953,0,0,1,0,1.905Z" transform="translate(-642.533 -276.706)"/><rect class="b" width="25.397" height="17.778" transform="translate(41.087 56.829)"/><path class="c" d="M0,0H21.59V11.969a2,2,0,0,1-2,2H0Z" transform="translate(41.116 56.829)"/><path class="d" d="M706.459,343.758h-25.4a.952.952,0,0,1-.953-.953V325.028a.952.952,0,0,1,.953-.953h25.4a.952.952,0,0,1,.953.953V342.8a.952.952,0,0,1-.953.958Zm-24.445-1.9h23.492V325.979H682.014Z" transform="translate(-639.98 -268.198)"/><path class="d" d="M709.507,340.2H679.03a.953.953,0,1,1,0-1.9h30.477a.953.953,0,1,1,0,1.9Z" transform="translate(-640.504 -264.642)"/><rect class="b" width="17.778" height="25.397" transform="translate(16.022 56.831)"/><path class="c" d="M0,0H13.968V18.317a2,2,0,0,1-2,2H0Z" transform="translate(16.032 56.831)"/><path class="d" d="M678.519,351.376H660.742a.952.952,0,0,1-.953-.953v-25.4a.952.952,0,0,1,.953-.953h17.777a.952.952,0,0,1,.952.953v25.4a.952.952,0,0,1-.952.953Zm-16.826-1.9h15.874v-23.5H661.693Z" transform="translate(-644.713 -268.198)"/><path class="d" d="M681.567,325.979H658.709a.952.952,0,1,1,0-1.9h22.857a.952.952,0,1,1,0,1.9Z" transform="translate(-645.205 -268.198)"/><circle class="d" cx="1.27" cy="1.27" r="1.27" transform="translate(28.643 69.531)"/><path class="d" d="M714.584,302.36H709.5a.953.953,0,1,1,0-1.9h5.08a.953.953,0,1,1,0,1.9Z" transform="translate(-633.063 -274.103)"/><path class="d" d="M711.537,305.408a.953.953,0,0,1-.953-.952v-5.08a.953.953,0,0,1,1.905,0v5.08A.953.953,0,0,1,711.537,305.408Z" transform="translate(-632.555 -274.611)"/><circle class="d" cx="0.952" cy="0.952" r="0.952" transform="translate(78.029 18.733)"/><circle class="d" cx="0.952" cy="0.952" r="0.952" transform="translate(78.029 14.924)"/><circle class="d" cx="0.952" cy="0.952" r="0.952" transform="translate(78.029 8.573)"/><circle class="d" cx="0.952" cy="0.952" r="0.952" transform="translate(78.029 0.952)"/><path class="d" d="M653.623,288.39h-5.079a.953.953,0,0,1,0-1.9h5.079a.953.953,0,0,1,0,1.905Z" transform="translate(-647.592 -277.595)"/><path class="d" d="M650.576,291.438a.952.952,0,0,1-.952-.952v-5.08a.952.952,0,0,1,1.9,0v5.08a.952.952,0,0,1-.948.952Z" transform="translate(-647.084 -278.103)"/><circle class="d" cx="0.952" cy="0.952" r="0.952" transform="translate(2.54 16.511)"/><circle class="d" cx="0.952" cy="0.952" r="0.952" transform="translate(2.54 21.59)"/><circle class="d" cx="0.952" cy="0.952" r="0.952" transform="translate(2.54 29.21)"/></g></g></g></svg>