<svg xmlns="http://www.w3.org/2000/svg" viewBox="0 0 20.45 22.12"><path d="M18.8,21.13l-1.39-.33-.25-.06c-1.09-.36-2.21-.63-2.93-.79a1.41,1.41,0,0,1-.72-1.21V17.31l.14-.15a4.34,4.34,0,0,0,1.09-2.1.83.83,0,0,0,.67-.67c.12-.71.23-1.1.3-1.38a2.77,2.77,0,0,0,.14-.89c0-.47-.12-.77-.35-.9l-.13-.05a4.23,4.23,0,0,0,.08-.7,7.45,7.45,0,0,0-.15-1.65,8.39,8.39,0,0,0,1.08,0c.27-.08.95-.17,1-.88s-.28-.79-.67-.91a.76.76,0,0,1-.54-.65,13.17,13.17,0,0,0-.94-2.86A6.34,6.34,0,0,0,12.52.94L12,2.72l-.35-.45.11-1.15s0-1.06-.57-1.09S10,0,9.85,0c0,0-.72,0-1.37,0S7.9,1.12,7.9,1.12L8,2.27l-.35.45L7.15.94A6.22,6.22,0,0,0,4.46,3.48a13.68,13.68,0,0,0-1,2.86A.73.73,0,0,1,3,7c-.4.12-.7.21-.67.91s.71.79,1,.88a11.82,11.82,0,0,0,1.42,0,6.9,6.9,0,0,0-.15,1.65,4.23,4.23,0,0,0,.08.7l-.13.05c-.23.13-.35.43-.35.9a2.77,2.77,0,0,0,.14.89c.07.28.17.67.29,1.38a.85.85,0,0,0,.68.67,4.41,4.41,0,0,0,1.08,2.1l.15.15v1.43a1.42,1.42,0,0,1-1,1.35c-.59.16-1.1.33-1.6.49-.69.22-1.4.45-2.29.66A3.28,3.28,0,0,0,0,22.12H20.45A3.18,3.18,0,0,0,18.8,21.13Zm-13-6.34a.26.26,0,0,0-.26-.21c-.06,0-.34,0-.39-.27a11.73,11.73,0,0,0-.31-1.42,2.53,2.53,0,0,1-.12-.77.77.77,0,0,1,.09-.46l.08,0a.26.26,0,0,0,.29,0,.24.24,0,0,0,.09-.27,3.54,3.54,0,0,1-.14-1,6.73,6.73,0,0,1,.15-1.63c1.9,0,4.5,0,4.6,0h0s3,0,4.94,0a6.73,6.73,0,0,1,.15,1.63,3.54,3.54,0,0,1-.14,1,.24.24,0,0,0,.09.27.26.26,0,0,0,.29,0l.07,0s.1.14.1.46a2.54,2.54,0,0,1-.13.77c-.07.29-.18.68-.3,1.42-.05.25-.33.27-.39.27a.27.27,0,0,0-.26.21,3.85,3.85,0,0,1-1,2l-.19.21-1.83,1.09a2.93,2.93,0,0,1-2.14,0L6.93,17l-.19-.2A3.78,3.78,0,0,1,5.75,14.79Zm7.59,5.14s-2.14,1.82-3.51,1.82c-1.17,0-2.89-1.33-3.36-1.71A1.85,1.85,0,0,0,7,18.74v-1.1l1.85,1h0a3.44,3.44,0,0,0,1.23.23,3.33,3.33,0,0,0,1.35-.28h0L13,17.67v1.07a1.82,1.82,0,0,0,.41,1.15Z" fill="#f26624"/></svg>