<svg xmlns="http://www.w3.org/2000/svg" width="96.001" height="100" viewBox="0 0 96.001 100"><defs><style>.a{fill:#e2e5e6;}.b{fill:#adb6cf;}.c{fill:#fff;}.d{fill:#11294d;}</style></defs><g transform="translate(-423.167 -78.282)"><g transform="translate(423.167 78.282)"><circle class="a" cx="17.078" cy="17.078" r="17.078" transform="translate(46.272 65.844)"/><circle class="a" cx="14.639" cy="14.639" r="14.639" transform="translate(66.723 25.284)"/><circle class="a" cx="24.398" cy="24.398" r="24.398" transform="translate(0 0)"/><g transform="translate(9.13 9.425)"><path class="b" d="M4,0H73.416a4,4,0,0,1,4,4V58.554H0V4A4,4,0,0,1,4,0Z" transform="translate(0.916 0.914)"/><path class="c" d="M4,0H68.876V35.794a13,13,0,0,1-13,13H0V4A4,4,0,0,1,4,0Z" transform="translate(0.916 0.914)"/><rect class="b" width="29.277" height="7.319" transform="translate(24.985 71.667)"/><path class="c" d="M470.24,146.815H450.721v-3.66h21.958v1.22A2.44,2.44,0,0,1,470.24,146.815Z" transform="translate(-425.695 -71.489)"/><path class="b" d="M0,0H77.416V8.2a4,4,0,0,1-4,4H4a4,4,0,0,1-4-4Z" transform="translate(0.916 59.468)"/><path class="c" d="M0,0H71.315V5.319a2,2,0,0,1-2,2H0Z" transform="translate(0.916 59.468)"/><path class="d" d="M508.81,146.2H431.379a.912.912,0,0,1-.908-.915V91.617a5.778,5.778,0,0,1,5.747-5.8H503.97a5.778,5.778,0,0,1,5.747,5.8V145.29A.912.912,0,0,1,508.81,146.2Zm-76.524-1.83H507.9V91.617a3.953,3.953,0,0,0-3.932-3.965h-67.75a3.953,3.953,0,0,0-3.932,3.965Z" transform="translate(-430.471 -85.822)"/><path class="d" d="M480.182,151.573H450.9a.915.915,0,0,1-.915-.915v-7.32a.915.915,0,0,1,.915-.915h29.278a.915.915,0,0,1,.915.915v7.32a.915.915,0,0,1-.911.915Zm-28.363-1.83h27.448v-5.49H451.819Z" transform="translate(-425.92 -71.672)"/><path class="d" d="M503.97,146.693H436.218a5.777,5.777,0,0,1-5.747-5.794v-7.32a.911.911,0,0,1,.908-.915H508.81a.911.911,0,0,1,.907.915v7.32a5.777,5.777,0,0,1-5.747,5.794Zm-71.684-12.2v6.4a3.952,3.952,0,0,0,3.932,3.964H503.97a3.952,3.952,0,0,0,3.93-3.957v-6.4Z" transform="translate(-430.471 -74.111)"/><path class="d" d="M491.248,150.109H443.085a.915.915,0,1,1,0-1.83h48.163a.915.915,0,1,1,0,1.83Z" transform="translate(-427.543 -70.208)"/><path class="d" d="M485.53,130.562H474.814a.915.915,0,1,1,0-1.83H485.53a.915.915,0,0,1,0,1.83Z" transform="translate(-420.143 -75.094)"/><path class="d" d="M489.992,130.562h-2.7a.915.915,0,1,1,0-1.83h2.7a.915.915,0,0,1,0,1.83Z" transform="translate(-417.151 -75.094)"/><path class="d" d="M478.946,91.556H464.571a.915.915,0,1,1,0-1.83h14.375a.915.915,0,1,1,0,1.83Z" transform="translate(-422.602 -84.846)"/><path class="d" d="M482.676,91.556h-2.7a.915.915,0,1,1,0-1.83h2.7a.915.915,0,1,1,0,1.83Z" transform="translate(-418.852 -84.846)"/><path class="c" d="M460.477,96.713a6.41,6.41,0,0,0-6.556-6.255,6.612,6.612,0,0,0-5.642,3.083,6.612,6.612,0,0,0-5.643-3.083,6.411,6.411,0,0,0-6.556,6.255c0,7.371,12.2,14.483,12.2,14.483S460.477,104.084,460.477,96.713Z" transform="translate(-429.069 -84.663)"/><path class="b" d="M451.887,90.458a6.792,6.792,0,0,0-2.017.315,6.293,6.293,0,0,1,4.508,5.94c0,5.464-6.7,10.779-10.165,13.168,1.211.835,2.033,1.315,2.033,1.315s12.2-7.111,12.2-14.483A6.41,6.41,0,0,0,451.887,90.458Z" transform="translate(-427.207 -84.663)"/><path class="d" d="M448.461,112.294a.917.917,0,0,1-.46-.124c-.518-.3-12.654-7.466-12.654-15.273a7.334,7.334,0,0,1,7.471-7.171,7.638,7.638,0,0,1,5.643,2.483,7.64,7.64,0,0,1,5.642-2.483,7.334,7.334,0,0,1,7.471,7.171c0,7.806-12.136,14.971-12.653,15.273a.918.918,0,0,1-.46.124Zm-5.643-20.738a5.5,5.5,0,0,0-5.641,5.341c0,5.981,9.11,12.046,11.284,13.409,2.175-1.363,11.284-7.428,11.284-13.409a5.5,5.5,0,0,0-5.641-5.341A5.731,5.731,0,0,0,449.24,94.2a.951.951,0,0,1-1.556,0,5.734,5.734,0,0,0-4.866-2.644Z" transform="translate(-429.252 -84.846)"/><path class="d" d="M474.74,136.446h-.071a.912.912,0,0,1-.823-.751l-5.357-29.926-3.624,14.874a.908.908,0,0,1-.881.7h-4.3l-4.214,12.289a.9.9,0,0,1-.885.616.91.91,0,0,1-.847-.669l-4.716-16.948-4.19,11.329a.905.905,0,0,1-.816.594.878.878,0,0,1-.858-.53l-3.063-6.681H431.38a.915.915,0,1,1,0-1.83h9.3a.9.9,0,0,1,.823.531l2.394,5.221,4.4-11.9a.888.888,0,0,1,.888-.594.907.907,0,0,1,.836.666l4.685,16.834,3.478-10.143a.909.909,0,0,1,.858-.615h4.236l4.47-18.351a.906.906,0,0,1,1.774.056l5.5,30.7,4.029-11.793a.909.909,0,0,1,.858-.616h7.958a.909.909,0,0,1,.849.589l1.672,4.44,4.146-12.614a.9.9,0,0,1,1.689-.089l3.417,7.674h9.179a.915.915,0,0,1,0,1.83h-9.767a.906.906,0,0,1-.827-.54l-2.7-6.068L491.3,127.553a.907.907,0,0,1-.842.63.92.92,0,0,1-.868-.59l-2.358-6.255h-6.686L475.6,135.829A.909.909,0,0,1,474.74,136.446Z" transform="translate(-430.471 -82.163)"/><circle class="c" cx="2.44" cy="2.44" r="2.44" transform="translate(28.715 63.128)"/><path class="d" d="M456.268,142.3a3.355,3.355,0,1,1,3.355-3.355,3.355,3.355,0,0,1-3.355,3.355Zm0-4.88a1.525,1.525,0,1,0,1.525,1.525,1.525,1.525,0,0,0-1.525-1.525Z" transform="translate(-425.112 -73.379)"/><circle class="c" cx="2.44" cy="2.44" r="2.44" transform="translate(17.831 63.128)"/><path class="d" d="M447.485,142.3a3.355,3.355,0,1,1,3.355-3.355,3.355,3.355,0,0,1-3.355,3.355Zm0-4.88a1.525,1.525,0,1,0,1.525,1.525,1.525,1.525,0,0,0-1.525-1.525Z" transform="translate(-427.209 -73.379)"/><circle class="c" cx="2.44" cy="2.44" r="2.44" transform="translate(7.009 63.128)"/><path class="d" d="M438.7,142.3a3.355,3.355,0,1,1,3.355-3.355A3.355,3.355,0,0,1,438.7,142.3Zm0-4.88a1.525,1.525,0,1,0,1.525,1.525,1.525,1.525,0,0,0-1.525-1.525Z" transform="translate(-429.252 -73.379)"/></g></g></g></svg>