<svg xmlns="http://www.w3.org/2000/svg" width="94.996" height="100" viewBox="0 0 94.996 100"><defs><style>.a{fill:#e2e5e6;}.b{fill:#fff;}.c{fill:#adb6cf;}.d{fill:#11294d;}</style></defs><g transform="translate(-833.555 -78.282)"><g transform="translate(833.555 78.282)"><circle class="a" cx="17.803" cy="17.803" r="17.803" transform="translate(59.39 64.394)"/><circle class="a" cx="15.26" cy="15.26" r="15.26" transform="translate(0 57.082)"/><circle class="a" cx="25.433" cy="25.433" r="25.433" transform="translate(17 0)"/><g transform="translate(6.331 7.484)"><path class="b" d="M900.931,115.552H886.944l-3.815,43.236h20.345Z" transform="translate(-827.493 -76.448)"/><path class="b" d="M888.956,122.674h-13.2l-3.815,34.335h13.987Z" transform="translate(-830.29 -74.668)"/><path class="b" d="M877.307,129.8H865.58l-3.815,25.433H874.48Z" transform="translate(-832.834 -72.887)"/><path class="b" d="M867.041,136.918H854.39l-3.816,16.53H864.56Z" transform="translate(-835.632 -71.107)"/><path class="b" d="M854.878,144.039H844.215l-3.815,7.63h12.715Z" transform="translate(-838.175 -69.326)"/><path class="c" d="M903.474,158.788l-2.544-43.236h-4.861l2.16,36.729a2.543,2.543,0,0,1-2.539,2.693H883.465l-.336,3.815Z" transform="translate(-827.493 -76.448)"/><path class="c" d="M883.532,122.674l-2.49,28.2a2.541,2.541,0,0,1-2.533,2.319h-6.147l-.424,3.816h13.988l3.031-34.335Z" transform="translate(-830.29 -74.668)"/><path class="c" d="M871.8,129.8l-2.151,19.355a2.544,2.544,0,0,1-2.527,2.262h-4.78l-.571,3.815H874.48l2.826-25.433Z" transform="translate(-832.834 -72.887)"/><path class="c" d="M861.383,136.918l-1.584,10.55a2.545,2.545,0,0,1-2.516,2.165h-5.829l-.881,3.815H864.56l2.481-16.53Z" transform="translate(-835.632 -71.107)"/><path class="c" d="M848.909,144.039l-.425,1.844a2.543,2.543,0,0,1-2.477,1.97h-3.7l-1.909,3.816h12.715l1.762-7.63Z" transform="translate(-838.175 -69.326)"/><path class="d" d="M903.665,159.934H883.32a.952.952,0,0,1-.95-1.037l3.815-43.236a.952.952,0,0,1,.95-.87h13.986a.954.954,0,0,1,.953.9l2.544,43.236a.954.954,0,0,1-.953,1.009Zm-19.3-1.908h18.291l-2.43-41.329H888.007Z" transform="translate(-827.683 -76.639)"/><path class="d" d="M902.09,124.525a.953.953,0,0,1-.951-.9l-.208-3.529a.954.954,0,1,1,1.905-.113l.207,3.53a.956.956,0,0,1-.9,1.009Z" transform="translate(-823.042 -75.565)"/><path class="d" d="M903.405,146.9a.955.955,0,0,1-.951-.9l-1.149-19.54a.954.954,0,1,1,1.9-.111l1.149,19.54a.955.955,0,0,1-.9,1.009Z" transform="translate(-822.949 -73.975)"/><path class="d" d="M886.116,158.153H872.128a.954.954,0,0,1-.948-1.059L875,122.759a.954.954,0,0,1,.948-.847h13.2a.954.954,0,0,1,.95,1.037l-3.03,34.335a.954.954,0,0,1-.952.869Zm-12.922-1.908h12.049l2.861-32.428H876.8Z" transform="translate(-830.481 -74.858)"/><path class="d" d="M874.67,156.373H861.955a.953.953,0,0,1-.942-1.1l3.816-25.431a.951.951,0,0,1,.943-.813H877.5a.952.952,0,0,1,.948,1.059l-2.828,25.433A.953.953,0,0,1,874.67,156.373Zm-11.607-1.908h10.755l2.615-23.524h-9.84Z" transform="translate(-833.025 -73.078)"/><path class="d" d="M864.751,154.594H850.764a.953.953,0,0,1-.929-1.169l3.815-16.531a.953.953,0,0,1,.929-.739h12.654a.953.953,0,0,1,.943,1.1l-2.481,16.531a.953.953,0,0,1-.944.808Zm-12.789-1.908H863.93l2.2-14.624H855.337Z" transform="translate(-835.822 -71.297)"/><path class="d" d="M853.306,152.814H840.591a.952.952,0,0,1-.852-1.379l3.815-7.63a.951.951,0,0,1,.853-.529h10.662a.953.953,0,0,1,.929,1.169l-1.762,7.63a.951.951,0,0,1-.93.739Zm-11.171-1.908h10.412l1.321-5.723H845Z" transform="translate(-838.366 -69.517)"/><path class="b" d="M842.042,97.9a2.777,2.777,0,0,1,4.285-3.424,5.008,5.008,0,1,1,9.888,1.571,4.127,4.127,0,0,1,.867-.094,4.222,4.222,0,1,1,0,8.444H842.664a3.278,3.278,0,0,1-.622-6.5Z" transform="translate(-838.429 -82.807)"/><path class="c" d="M860.277,99.412a4.222,4.222,0,0,0-4.222-4.221,4.126,4.126,0,0,0-.868.094,4.972,4.972,0,0,0,.089-.921,5.05,5.05,0,0,0-.153-1.175,5,5,0,0,0-4.736,4.34,2.778,2.778,0,0,0-4.286,3.424,3.279,3.279,0,0,0-2.61,2.682h12.564A4.222,4.222,0,0,0,860.277,99.412Z" transform="translate(-837.402 -82.039)"/><path class="d" d="M857.272,105.546H842.855A4.232,4.232,0,0,1,841,97.509a3.8,3.8,0,0,1-.083-.781,3.73,3.73,0,0,1,4.99-3.515A5.963,5.963,0,0,1,857.446,95.2a5.175,5.175,0,1,1-.174,10.348ZM844.651,94.9a1.828,1.828,0,0,0-1.826,1.826,1.8,1.8,0,0,0,.235.9.953.953,0,0,1-.647,1.408,2.325,2.325,0,0,0,.443,4.608h14.417a3.267,3.267,0,1,0-.669-6.464.954.954,0,0,1-1.136-1.108,4,4,0,0,0,.073-.746,4.055,4.055,0,0,0-8.076-.526.953.953,0,0,1-1.586.584,1.819,1.819,0,0,0-1.228-.482Z" transform="translate(-838.62 -82.997)"/><path class="b" d="M859.338,110.113a2.777,2.777,0,0,1,4.285-3.424,5.009,5.009,0,0,1,9.976.65,5.085,5.085,0,0,1-.088.921,4.115,4.115,0,0,1,.866-.094,4.222,4.222,0,0,1,0,8.444H859.959a3.278,3.278,0,0,1-.621-6.5Z" transform="translate(-834.105 -79.754)"/><path class="c" d="M877.573,111.621a4.222,4.222,0,0,0-4.221-4.221,4.114,4.114,0,0,0-.867.094,5.086,5.086,0,0,0,.088-.921,5,5,0,0,0-.152-1.175,5,5,0,0,0-4.736,4.34,2.778,2.778,0,0,0-4.285,3.425,3.276,3.276,0,0,0-2.611,2.681h12.564a4.222,4.222,0,0,0,4.22-4.223Z" transform="translate(-833.078 -78.987)"/><path class="d" d="M874.569,117.755H860.15a4.232,4.232,0,0,1-1.853-8.038,3.732,3.732,0,0,1,4.9-4.3,5.963,5.963,0,0,1,11.54,1.985,5.176,5.176,0,1,1-.174,10.35Zm-12.62-10.644a1.826,1.826,0,0,0-1.59,2.726.952.952,0,0,1-.651,1.4,2.324,2.324,0,0,0,.443,4.606H874.57a3.267,3.267,0,1,0-.669-6.464.969.969,0,0,1-.865-.25.956.956,0,0,1-.271-.858,3.97,3.97,0,0,0,.073-.746A4.055,4.055,0,0,0,864.76,107a.955.955,0,0,1-1.588.583,1.82,1.82,0,0,0-1.224-.472Z" transform="translate(-834.296 -79.945)"/><path class="b" d="M846.111,125.375a2.778,2.778,0,0,1,4.286-3.424,5.008,5.008,0,0,1,9.975.649,5.09,5.09,0,0,1-.087.921,4.134,4.134,0,0,1,.867-.094,4.223,4.223,0,1,1,0,8.446H846.733a3.278,3.278,0,0,1-.623-6.5Z" transform="translate(-837.412 -75.939)"/><path class="c" d="M864.348,126.883a4.223,4.223,0,0,0-4.223-4.223,4.134,4.134,0,0,0-.867.094,5.085,5.085,0,0,0,.087-.921,4.908,4.908,0,0,0-.152-1.174,5,5,0,0,0-4.736,4.34,2.777,2.777,0,0,0-4.285,3.424,3.281,3.281,0,0,0-2.611,2.682h12.565a4.223,4.223,0,0,0,4.222-4.221Z" transform="translate(-836.385 -75.171)"/><path class="d" d="M861.343,133.017H846.924a4.232,4.232,0,0,1-1.854-8.038,3.729,3.729,0,0,1,3.65-4.515,3.678,3.678,0,0,1,1.256.219,5.962,5.962,0,0,1,11.539,1.984,5.176,5.176,0,1,1-.172,10.35ZM848.72,122.372a1.829,1.829,0,0,0-1.826,1.826,1.8,1.8,0,0,0,.237.9.953.953,0,0,1-.65,1.406,2.325,2.325,0,0,0,.443,4.608h14.419a3.271,3.271,0,0,0,3.268-3.269,3.225,3.225,0,0,0-3.936-3.2.963.963,0,0,1-.865-.25.952.952,0,0,1-.271-.857,4.112,4.112,0,0,0,.071-.746,4.054,4.054,0,0,0-8.075-.527.955.955,0,0,1-1.588.584,1.821,1.821,0,0,0-1.227-.475Z" transform="translate(-837.603 -76.13)"/><circle class="b" cx="16.532" cy="16.532" r="16.532" transform="translate(49.276 0.953)"/><path class="c" d="M892.55,85.032a16.448,16.448,0,0,0-2.394.192,16.522,16.522,0,0,1-4.029,31.575,16.533,16.533,0,1,0,6.422-31.768Z" transform="translate(-826.743 -84.078)"/><path class="d" d="M894.763,119.239a17.485,17.485,0,1,1,17.485-17.485,17.485,17.485,0,0,1-17.485,17.485Zm0-33.063a15.578,15.578,0,1,0,15.579,15.578,15.578,15.578,0,0,0-15.579-15.578Z" transform="translate(-828.955 -84.269)"/><path class="b" d="M903.9,97.263l-4.23-4.23-8.1,8.072-4.493-4.493-4.23,4.23,8.723,8.723Z" transform="translate(-827.564 -82.078)"/><path class="d" d="M891.757,110.709a.95.95,0,0,1-.675-.279l-8.722-8.723a.954.954,0,0,1,0-1.349l4.23-4.23a.954.954,0,0,1,1.349,0l3.82,3.82,7.429-7.4a.954.954,0,0,1,1.348,0l4.229,4.229a.952.952,0,0,1,0,1.35l-12.333,12.3a.95.95,0,0,1-.675.282Zm-7.375-9.676,7.376,7.375L902.74,97.452l-2.881-2.881-7.429,7.4a.954.954,0,0,1-1.348,0l-3.819-3.819Z" transform="translate(-827.755 -82.269)"/><path class="d" d="M859.643,89.271h-1.76a.954.954,0,0,1,0-1.908h1.76a.954.954,0,0,1,0,1.908Z" transform="translate(-834.043 -83.495)"/><path class="d" d="M864.337,89.271h-1.759a.954.954,0,0,1,0-1.908h1.759a.954.954,0,0,1,0,1.908Z" transform="translate(-832.869 -83.495)"/><path class="d" d="M860.935,92.675a.954.954,0,0,1-.954-.954V89.96a.954.954,0,1,1,1.907,0v1.761a.954.954,0,0,1-.953.954Z" transform="translate(-833.28 -83.085)"/><path class="d" d="M860.935,87.98a.954.954,0,0,1-.954-.954V85.265a.954.954,0,1,1,1.907,0v1.761a.954.954,0,0,1-.953.954Z" transform="translate(-833.28 -84.258)"/><path class="d" d="M869.818,97.41h-1.761a.954.954,0,1,1,0-1.908h1.761a.954.954,0,0,1,0,1.908Z" transform="translate(-831.499 -81.46)"/><path class="d" d="M874.513,97.41h-1.76a.954.954,0,1,1,0-1.908h1.76a.954.954,0,0,1,0,1.908Z" transform="translate(-830.325 -81.46)"/><path class="d" d="M871.109,100.815a.954.954,0,0,1-.954-.954V98.1a.954.954,0,1,1,1.907,0v1.761A.954.954,0,0,1,871.109,100.815Z" transform="translate(-830.736 -81.05)"/><path class="d" d="M871.109,96.118a.954.954,0,0,1-.954-.954V93.4a.954.954,0,1,1,1.907,0v1.76a.954.954,0,0,1-.953.958Z" transform="translate(-830.736 -82.223)"/><path class="d" d="M843.365,110.636H841.6a.954.954,0,1,1,0-1.908h1.761a.954.954,0,0,1,0,1.908Z" transform="translate(-838.112 -78.154)"/><path class="d" d="M848.06,110.636H846.3a.954.954,0,1,1,0-1.908h1.76a.954.954,0,0,1,0,1.908Z" transform="translate(-836.938 -78.154)"/><path class="d" d="M844.656,114.041a.954.954,0,0,1-.954-.954v-1.761a.954.954,0,1,1,1.907,0v1.761A.954.954,0,0,1,844.656,114.041Z" transform="translate(-837.349 -77.743)"/><path class="d" d="M844.656,109.346a.954.954,0,0,1-.954-.954v-1.761a.954.954,0,1,1,1.907,0v1.761A.954.954,0,0,1,844.656,109.346Z" transform="translate(-837.349 -78.917)"/></g></g></g></svg>