<svg xmlns="http://www.w3.org/2000/svg" width="101" height="100" viewBox="0 0 101 100"><defs><style>.a{fill:#22375f;}.b{fill:#e8eaeb;}.c{fill:#bdc3d7;}.d{fill:#fcfff9;}</style></defs><path class="a" d="M9.978,14.662H8.206a.956.956,0,1,1,0-1.912H9.978a.956.956,0,1,1,0,1.912Z" transform="translate(1.993 3.504)"/><path class="a" d="M14.585,14.662H12.826a.956.956,0,0,1,0-1.912h1.759a.956.956,0,1,1,0,1.912Z" transform="translate(3.263 3.504)"/><path class="a" d="M11.206,18.044a.969.969,0,0,1-.956-.956V15.316a.956.956,0,0,1,1.912,0v1.772A.969.969,0,0,1,11.206,18.044Z" transform="translate(2.817 3.947)"/><path class="a" d="M11.206,13.422a.969.969,0,0,1-.956-.956V10.706a.956.956,0,1,1,1.912,0v1.759A.969.969,0,0,1,11.206,13.422Z" transform="translate(2.817 2.68)"/><ellipse class="b" cx="17.848" cy="17.848" rx="17.848" ry="17.848" transform="translate(0 36.576)"/><ellipse class="b" cx="15.298" cy="15.298" rx="15.298" ry="15.298" transform="translate(44.331 69.403)"/><circle class="b" cx="25.5" cy="25.5" r="25.5" transform="translate(50)"/><path class="c" d="M11.781,23.44h73.1a3.8,3.8,0,0,1,3.781,3.825v42.07H8V27.265a3.8,3.8,0,0,1,3.781-3.825Z" transform="translate(2.199 6.443)"/><path class="d" d="M11.825,23.44H83.217V56.586a3.825,3.825,0,0,1-3.825,3.825H8V27.265a3.825,3.825,0,0,1,3.825-3.825Z" transform="translate(2.199 6.443)"/><path class="a" d="M88.883,70.5H8.2a.951.951,0,0,1-.946-.956V27.471a4.767,4.767,0,0,1,4.728-4.781H85.1a4.767,4.767,0,0,1,4.728,4.781v42.07a.951.951,0,0,1-.946.956ZM9.141,68.585h78.8V27.471A2.853,2.853,0,0,0,85.1,24.6H11.978a2.853,2.853,0,0,0-2.837,2.868Z" transform="translate(1.993 6.237)"/><rect class="c" width="35.696" height="7.649" transform="translate(32.684 83.427)"/><path class="d" d="M26,65.44H57.871v2.55A1.275,1.275,0,0,1,56.6,69.265H26Z" transform="translate(6.709 17.987)"/><path class="a" d="M61.9,74.251h-35.7a.956.956,0,0,1-.956-.956V65.646a.969.969,0,0,1,.956-.956H61.9a.969.969,0,0,1,.956.956V73.3A.956.956,0,0,1,61.9,74.251Zm-34.74-1.912H60.946V66.6H27.162Z" transform="translate(6.478 17.781)"/><path class="c" d="M8,59.44H88.667v3.825a3.8,3.8,0,0,1-3.781,3.825h-73.1A3.8,3.8,0,0,1,8,63.265V59.44Z" transform="translate(2.199 16.338)"/><path class="d" d="M83.582,63.265H8V59.44H84.842v2.55A1.267,1.267,0,0,1,83.582,63.265Z" transform="translate(2.199 16.338)"/><path class="a" d="M85.1,68.251H11.978A4.754,4.754,0,0,1,7.25,63.471V59.646A.964.964,0,0,1,8.2,58.69H88.883a.964.964,0,0,1,.946.956v3.825A4.754,4.754,0,0,1,85.1,68.251ZM9.141,60.6v2.868a2.853,2.853,0,0,0,2.837,2.868H85.1a2.853,2.853,0,0,0,2.837-2.868V60.6Z" transform="translate(1.993 16.132)"/><path class="a" d="M76.489,72.6h-60.3a.956.956,0,0,1,0-1.912h60.3a.956.956,0,0,1,0,1.912Z" transform="translate(4.192 19.43)"/><ellipse class="a" cx="1.275" cy="1.275" rx="1.275" ry="1.275" transform="translate(49.257 78.327)"/><path class="d" d="M63.325,38.545v5.38a6.527,6.527,0,0,1-13.016.8H44.687A3.825,3.825,0,0,1,40.862,40.9V34.146a8.121,8.121,0,0,1-4.832,1.581H30.778a8.261,8.261,0,0,1-8.248-8.261V20.8a.956.956,0,0,1,.319-.7.166.166,0,0,1,.089-.076,1.02,1.02,0,0,1,.357-.166l22.221-8.108a9.243,9.243,0,0,1,10.122,2.664,8.924,8.924,0,0,1,1.415,2.18,5.546,5.546,0,0,1,.28.688,9.051,9.051,0,0,1,.548,3.123A9.281,9.281,0,0,1,51.814,29.1l-3.2,1.16v7.56a.752.752,0,0,1,.293,0h1.466a6.527,6.527,0,0,1,13.016.778Z" transform="translate(5.758 3.079)"/><path class="c" d="M49.426,16.137a7.1,7.1,0,0,1-2.053,7c-2.116.8-8.236,3.2-8.236,3.2L38.5,29.651l10.02-3.06,3.238-4.08.637-5.1L51.121,15.5Z" transform="translate(10.067 4.26)"/><path class="c" d="M53.027,28.93V39.856s-1.517,4.131-7.177,1.81a7.216,7.216,0,0,0,2.741,2.486h3.378l2.894-1.441L55.9,38.887,55.654,31.4Z" transform="translate(12.014 7.952)"/><path class="c" d="M39.91,26.994V39.436l2.307-.421.892-7.356L42.7,25.91Z" transform="translate(10.493 7.122)"/><path class="a" d="M57.84,20.4a9.281,9.281,0,0,1-6.068,8.695l-3.2,1.16-6.03,2.167h-.064a.956.956,0,0,1-.65-1.785l9.294-3.366a7.356,7.356,0,0,0,4.819-6.9,7.178,7.178,0,0,0-.446-2.473,1.541,1.541,0,0,0-.217-.548,7.241,7.241,0,0,0-1.109-1.721,7.343,7.343,0,0,0-8.07-2.142L28.837,19.863l-5.1,1.849a.956.956,0,0,1-1.275-.574.931.931,0,0,1,0-.319.956.956,0,0,1,.319-.7.166.166,0,0,1,.089-.076,1.02,1.02,0,0,1,.357-.166l22.221-8.108a9.243,9.243,0,0,1,10.122,2.664,8.924,8.924,0,0,1,1.415,2.18,5.545,5.545,0,0,1,.28.688,9.052,9.052,0,0,1,.574,3.1Z" transform="translate(5.773 3.085)"/><path class="a" d="M39.052,20.828a.956.956,0,0,1-.331-1.874l11.894-4.322a.956.956,0,1,1,.65,1.785L39.371,20.751a.931.931,0,0,1-.319.076Z" transform="translate(9.941 3.994)"/><path class="a" d="M51.169,32.977a.969.969,0,0,1-.956.956H43.379a.752.752,0,0,1-.293,0,.943.943,0,0,1,0-1.81.752.752,0,0,1,.293,0h6.833A.969.969,0,0,1,51.169,32.977Z" transform="translate(11.12 8.825)"/><path class="a" d="M52.062,36.956a.969.969,0,0,1-.956.956H40.116a.956.956,0,0,1,0-1.912H51.105a.969.969,0,0,1,.956.956Z" transform="translate(10.245 9.895)"/><path class="a" d="M57.339,34.085v5.38a6.527,6.527,0,0,1-13.016.8,5.662,5.662,0,0,1,0-.8v-.153a.956.956,0,0,1,1.9,0v.153a4.093,4.093,0,0,0,.076.8,4.628,4.628,0,0,0,9.09-.8v-5.38a4.64,4.64,0,0,0-9.153-.829,5.189,5.189,0,0,0,0,.778v.191a.956.956,0,0,1-1.9,0v-.191a5.2,5.2,0,0,1,0-.778,6.527,6.527,0,0,1,13.016.778Z" transform="translate(11.591 7.539)"/><path class="a" d="M44.6,26.206V37a3.748,3.748,0,0,1-.535,1.951,3.825,3.825,0,0,1-7.177-1.938V28.373a.956.956,0,1,1,1.912,0v8.682a1.951,1.951,0,0,0,3.825,0V26.206a.956.956,0,0,1,1.912,0Z" transform="translate(9.678 6.94)"/><path class="a" d="M43.324,18H23.245a1.02,1.02,0,0,0-.357.166.166.166,0,0,0-.089.076.956.956,0,0,0-.319.7v6.642a8.261,8.261,0,0,0,8.312,8.248h5.227a8.121,8.121,0,0,0,4.832-1.581,7.84,7.84,0,0,0,1.912-1.925,8.159,8.159,0,0,0,1.517-4.755V18.931A.956.956,0,0,0,43.324,18Zm-7.3,14.023H30.792a6.374,6.374,0,0,1-6.374-6.374V19.887h17.95v5.686a6.374,6.374,0,0,1-6.349,6.362Z" transform="translate(5.848 4.947)"/><path class="a" d="M31.907,20.5a4.717,4.717,0,1,0,4.717,4.717A4.717,4.717,0,0,0,31.907,20.5Zm0,7.534a2.817,2.817,0,1,1,2.8-2.817,2.817,2.817,0,0,1-2.8,2.817Z" transform="translate(7.127 5.635)"/><path class="a" d="M14.991,33.612H13.206a.956.956,0,1,1,0-1.912h1.785a.956.956,0,0,1,0,1.912Z" transform="translate(3.367 8.713)"/><path class="a" d="M19.583,33.612H17.836a.956.956,0,1,1,0-1.912h1.747a.956.956,0,0,1,0,1.912Z" transform="translate(4.437 8.713)"/><path class="a" d="M16.206,36.992a.969.969,0,0,1-.956-.956V34.276a.956.956,0,0,1,1.912,0v1.759A.969.969,0,0,1,16.206,36.992Z" transform="translate(4.012 9.158)"/><path class="a" d="M16.206,32.372a.956.956,0,0,1-.956-.956V29.656a.956.956,0,0,1,1.912,0v1.759A.956.956,0,0,1,16.206,32.372Z" transform="translate(4.012 7.888)"/><path class="a" d="M30,47.542h-1.8a.956.956,0,1,1,0-1.912h1.759a.956.956,0,0,1,0,1.912Z" transform="translate(7.163 12.542)"/><path class="a" d="M34.58,47.542H32.846a.956.956,0,1,1,0-1.912H34.58a.956.956,0,1,1,0,1.912Z" transform="translate(8.383 12.542)"/><path class="a" d="M31.206,50.922a.943.943,0,0,1-.956-.956V48.206a.956.956,0,1,1,1.912,0v1.759a.956.956,0,0,1-.956.956Z" transform="translate(7.958 12.987)"/><path class="a" d="M31.206,46.314a.956.956,0,0,1-.956-.956V43.586a.956.956,0,0,1,1.912,0v1.772a.969.969,0,0,1-.956.956Z" transform="translate(7.958 11.717)"/><path class="a" d="M62.705,16.962H60.946a.956.956,0,0,1,0-1.912h1.759a.956.956,0,1,1,0,1.912Z" transform="translate(15.769 4.137)"/><path class="a" d="M67.328,16.962H65.556a.956.956,0,0,1,0-1.912h1.772a.956.956,0,1,1,0,1.912Z" transform="translate(16.832 4.137)"/><path class="a" d="M63.943,20.342A.943.943,0,0,1,63,19.385V17.626a.956.956,0,1,1,1.912,0v1.759a.956.956,0,0,1-.969.956Z" transform="translate(16.574 4.582)"/><path class="a" d="M63.946,15.734a.956.956,0,0,1-.956-.956V13.006a.956.956,0,1,1,1.912,0v1.772A.969.969,0,0,1,63.946,15.734Z" transform="translate(16.571 3.312)"/><path class="a" d="M58.2,48.412H56.436a.956.956,0,0,1,0-1.912H58.2a.956.956,0,1,1,0,1.912Z" transform="translate(14.584 12.781)"/><path class="a" d="M62.818,48.412H61.046a.956.956,0,0,1,0-1.912h1.772a.956.956,0,1,1,0,1.912Z" transform="translate(15.796 12.781)"/><path class="a" d="M59.436,51.792a.969.969,0,0,1-.956-.956V49.076a.956.956,0,0,1,1.912,0v1.759A.969.969,0,0,1,59.436,51.792Z" transform="translate(15.385 13.226)"/><path class="a" d="M59.436,47.172a.956.956,0,0,1-.956-.956V44.456a.956.956,0,1,1,1.912,0v1.759a.956.956,0,0,1-.956.956Z" transform="translate(15.385 11.956)"/></svg>