<svg xmlns="http://www.w3.org/2000/svg" viewBox="0 0 22.92 21.15"><path d="M22.87,9.14,21.72,6.57A3,3,0,0,0,19.6,1.43,3,3,0,0,0,17,3L9.06,2.25A4.93,4.93,0,1,0,2.83,9.39l1,3.42a4.93,4.93,0,1,0,5.57-1.1L8.58,8.25a4.88,4.88,0,0,0,1-1.71L17,5.91a3.34,3.34,0,0,0,.37.53l-1.21,2.7,0,.1,0,.09.56,1.39.09.24.23-.1.48-.19.23-.09-.09-.23L17.2,9.26l1-2.17a3,3,0,0,0,1.43.37,2.9,2.9,0,0,0,1.28-.3l.93,2.1-.43,1.09-.09.23.23.09.48.19.23.1.1-.24.55-1.39,0-.09ZM21.42,6.51h0a2.82,2.82,0,0,0,.69-.92A2.82,2.82,0,0,1,21.42,6.51ZM19.6,5.13a.69.69,0,0,1,0-1.38.69.69,0,0,1,0,1.38ZM8.18,1.57a4.62,4.62,0,0,1,.73.92l8.22.74L8.91,2.49a4.62,4.62,0,0,0-.73-.92,4.54,4.54,0,0,0-.93-.7A4.54,4.54,0,0,1,8.18,1.57Zm8.46,3.35L9.83,5.5a3.78,3.78,0,0,0,0-.56,4.68,4.68,0,0,0-.28-1.62L16.64,4a2.81,2.81,0,0,0-.05.49A2.7,2.7,0,0,0,16.64,4.92Zm-7.1.85,7.4-.62-7.4.62ZM8.4,17.9a1.87,1.87,0,0,1-1,.27,2,2,0,1,1,0-3.9,1.95,1.95,0,0,1,1,3.63Zm.12.22a2.22,2.22,0,0,1-.48.2A2.22,2.22,0,0,0,8.52,18.12Zm-.63.24a2.33,2.33,0,0,1-.37,0A2.33,2.33,0,0,0,7.89,18.36ZM4,3.25a1.95,1.95,0,1,1-.71,2.66A2,2,0,0,1,4,3.25ZM3.84,3a2.22,2.22,0,0,1,.48-.2A2.22,2.22,0,0,0,3.84,3Zm.63-.23a1.64,1.64,0,0,1,.37,0A1.64,1.64,0,0,0,4.47,2.8Zm1.62.28a2.26,2.26,0,0,1,.31.23A2.26,2.26,0,0,0,6.09,3.08Zm.42.33a2.34,2.34,0,0,1,.33.43A2.34,2.34,0,0,0,6.51,3.41ZM4.4,7.06a2.65,2.65,0,0,0,.48.07A2.65,2.65,0,0,1,4.4,7.06ZM5,7.12a1.64,1.64,0,0,0,.37,0A1.64,1.64,0,0,1,5,7.12ZM5.55,7A2.22,2.22,0,0,0,6,6.84,2.22,2.22,0,0,1,5.55,7ZM3.78,6.79a2.26,2.26,0,0,1-.31-.23A2.26,2.26,0,0,0,3.78,6.79Zm.59.27a2.11,2.11,0,0,1-.47-.19A2.11,2.11,0,0,0,4.37,7.06Zm3,7a2.52,2.52,0,0,0-.37.05A2.52,2.52,0,0,1,7.33,14Zm-.52.08a2.22,2.22,0,0,0-.48.2A2.22,2.22,0,0,1,6.81,14.11Zm-.54,4A1.66,1.66,0,0,1,6,17.84,1.66,1.66,0,0,0,6.27,18.07Zm-.42-.33a2.27,2.27,0,0,1-.33-.42A2.27,2.27,0,0,0,5.85,17.74ZM7.49,14a1.89,1.89,0,0,1,.47.06A1.84,1.84,0,0,0,7.49,14Zm.5.06a2.72,2.72,0,0,1,.47.19A2.72,2.72,0,0,0,8,14.09Zm.59.27a2.26,2.26,0,0,1,.31.23A2.26,2.26,0,0,0,8.58,14.36ZM7.43,11.28a4.85,4.85,0,0,0-2.72.84L4,9.77a4.33,4.33,0,0,0,.93.1A4.8,4.8,0,0,0,7.71,9l.59,2.38A4.51,4.51,0,0,0,7.43,11.28ZM6.52,9.34a4.85,4.85,0,0,0,1.34-.78h0A4.85,4.85,0,0,1,6.52,9.34Zm-1-6.53A2.65,2.65,0,0,0,5,2.74,2.53,2.53,0,0,1,5.47,2.81ZM6,3a2.11,2.11,0,0,0-.47-.19A2.11,2.11,0,0,1,6,3ZM3.36,6.46A2.34,2.34,0,0,1,3,6,2.34,2.34,0,0,0,3.36,6.46ZM6.89,18.35l.48.06Zm-.5-.2a2.11,2.11,0,0,0,.47.19A2.11,2.11,0,0,1,6.39,18.15ZM9,14.7a2,2,0,0,1,.33.42A2,2,0,0,0,9,14.7ZM8.3,8.18A4.5,4.5,0,0,0,9.39,6.3,4.5,4.5,0,0,1,8.3,8.18Zm9.34-1.79L16.37,9.24h0Zm5,2.85L22,7.87l.62,1.37Z" fill="#f26624"/></svg>