<svg xmlns="http://www.w3.org/2000/svg" width="98" height="100" viewBox="0 0 98 100"><defs><style>.a{fill:#e2e5e6;}.b{fill:#fff;}.c{fill:#adb6cf;}.d{fill:#11294d;}</style></defs><g transform="translate(-126.313 -273.28)"><g transform="translate(126.313 273.28)"><circle class="a" cx="17.892" cy="17.892" r="17.892" transform="translate(62.216 35.847)"/><circle class="a" cx="15.336" cy="15.336" r="15.336" transform="translate(21.061 0)"/><circle class="a" cx="25.56" cy="25.56" r="25.56" transform="translate(0 48.88)"/><g transform="translate(9.458 14.088)"><path class="b" d="M134.825,288.419v29.428h8.782v7.435l-3.046,2.792-4.016,5.542-1.991,5.542,1.269,5.161,2.327,4.484,3.13,4.146,1.9,1.988,33.589.212.465-2.242L179.1,347.2l.628-6.6.635-8.249v-4.188l4.442-1.283L189,325.029l2.2-2.667,3.68-.844,3.892-.316,2.454-3.354-1.015-4.156-.963-.888,2.867-.479,2.242-2.609-.491-4.019L201.1,303.73l-1.526-.149.592-1.861.933-3.257-1.854-2.75-3.013-1.9,1.946-5-2.877-2.826-6.515-.254-14.933-.423-5.965,1.438-3.511,1.734Z" transform="translate(-133.711 -284.361)"/><path class="c" d="M134.77,292.514h33.166s2.151-3.121,11.116-3.2,18.554,0,18.554,0l-.9-3.026-5.754-1.116-19.29.578-6.318,2.7-5.527.39-10.717-.39-13.669.86Z" transform="translate(-133.657 -284.395)"/><path class="c" d="M181.52,293.4s6.768,1.358,6.26,6.49,1.579-1.185,1.579-1.185l.283-3.61-2.426-2.143-3.271-.339Z" transform="translate(-121.97 -282.533)"/><path class="c" d="M182.613,300.6s8.841,2.7,8.277,6.254.959-.676.959-.676v-3.893l-2.256-2.164-2.989-.375Z" transform="translate(-121.697 -280.751)"/><path class="c" d="M180.159,307.864s8.186,1.933,8.356,6.5,1.184-3.25,1.184-3.25l-1.854-3.251-4.619-.944Z" transform="translate(-122.31 -278.957)"/><path class="c" d="M137.162,297.181h20.475l-.31-2.473-2.679-3.836-14.5-.2-1.41,2.6Z" transform="translate(-133.059 -283.019)"/><path class="c" d="M142.171,304.312s5.443-7.231,6.318,1c.489,4.6.141,14.637.141,14.637s.389,2.579,2.281,2.579.059-11.124.059-11.124l-.339-11.112-2.707-2.751-3.947.777-1.8,2.606Z" transform="translate(-131.807 -281.302)"/><path class="c" d="M150.006,314.138s3.562-3.1,5.375-.45c0,0,.524,3.831,1.813,4.99s1.008-4.534,1.008-4.534l-.959-2.6-3.642-2.37-3.408,1.619-.621,2.781Z" transform="translate(-129.957 -278.394)"/><path class="c" d="M157.355,315.951s3.542-2.876,5.326-.394c0,0,.5,3.576,1.774,4.664S165.473,316,165.473,316l-.937-2.429-3.6-2.229-3.385,1.494-.627,2.591Z" transform="translate(-128.118 -277.853)"/><path class="c" d="M164.525,318.534s3.542-2.875,5.326-.393c0,0,.5,3.576,1.772,4.664s1.019-4.225,1.019-4.225l-.937-2.43-3.6-2.227-3.384,1.492-.628,2.593Z" transform="translate(-126.326 -277.207)"/><path class="c" d="M136.147,325.179s4.459-1.984,6.417,4.043l1.112-2.689-.678-9-1.945,1.271Z" transform="translate(-133.313 -276.304)"/><path class="d" d="M205.377,308.19a5.5,5.5,0,0,0-3.674-5.179l-.692-.244.41-.609a5.478,5.478,0,0,0-2.744-8.224l-.693-.242.41-.61a5.48,5.48,0,0,0-4.556-8.533h-18.57a20.1,20.1,0,0,0-10.616,2.94l-.137.086h-29.69a.934.934,0,0,0-.923.836h-.022v.112h0l.011,29.914-.011.269h1.771l7.308-.01v5.752l-2.939,2.938c-3,2.995-6.114,8.519-6.14,12.583-.026,4.125,3.114,9.747,6.167,12.8a9.2,9.2,0,0,1,2.005,2.747.933.933,0,0,0,.8.53v.006h.05l34.287-.011a.948.948,0,0,0,.946-.946v-2.453l.085-.137a20.1,20.1,0,0,0,2.941-10.614V329.117a.917.917,0,0,0,.264-.128c1.12-.774,7.529-2.477,8.35-3.3l2.937-2.939h4.149a5.491,5.491,0,0,0,5.485-5.485,5.436,5.436,0,0,0-.93-3.049l-.409-.609.691-.244A5.5,5.5,0,0,0,205.377,308.19Zm-63.554-18.722h13.24v4.158h-13.24Zm37.451,52.42a18.093,18.093,0,0,1-2.874,9.959.939.939,0,0,0-.153.516v1.918H143.513a10.93,10.93,0,0,0-2.139-2.866l-.012-.011c-2.706-2.7-5.613-7.836-5.59-11.427.021-3.413,2.906-8.574,5.586-11.254l1.6-1.6v9.82a.946.946,0,1,0,1.891,0V305.164a3.594,3.594,0,1,1,7.188,0v19.671a.946.946,0,0,0,1.891,0v-4.54a3.594,3.594,0,1,1,7.188,0v4.54a.946.946,0,1,0,1.892,0v-1.514a3.593,3.593,0,0,1,7.186,0v3.026a.947.947,0,0,0,1.893,0,3.594,3.594,0,1,1,7.188,0Zm20.617-30.1h-7.566a.946.946,0,1,0,0,1.891h4.54a3.594,3.594,0,0,1,0,7.188h-11.62a.946.946,0,0,0,0,1.892h4.8l-1.6,1.6c-.62.62-5.247,1.883-7.276,2.693v-.7a5.483,5.483,0,0,0-8.535-4.557l-.607.406-.244-.69a5.485,5.485,0,0,0-8.227-2.742l-.607.406-.244-.69a5.481,5.481,0,0,0-7.919-2.932l-.854.495V305.164a5.485,5.485,0,1,0-10.97,0v11.767h-7.308V289.467h4.281v4.269l-.378.135a3.975,3.975,0,0,0-2.649,3.726v15.131a.946.946,0,1,0,1.891,0V297.6a2.083,2.083,0,0,1,2.081-2.08h15.13a2.083,2.083,0,0,1,2.081,2.08v11.979a.946.946,0,0,0,1.891,0v-2.9h1.135a.946.946,0,1,0,1.891,0V303.65a.946.946,0,0,0-1.891,0h-1.135V297.6a3.974,3.974,0,0,0-2.65-3.726l-.376-.135V289.47h7.84a.946.946,0,0,0,.515-.156,18.117,18.117,0,0,1,9.959-2.87h18.57a3.594,3.594,0,0,1,0,7.188.946.946,0,1,0,0,1.891h3.026a3.594,3.594,0,1,1,0,7.188h-1.514a.946.946,0,1,0,0,1.891h4.54a3.594,3.594,0,1,1,0,7.188Z" transform="translate(-133.88 -284.55)"/></g><g transform="translate(5.143 7.058)"><path class="d" d="M136.5,282.888h-5.112a.959.959,0,1,1,0-1.917H136.5a.959.959,0,0,1,0,1.917Z" transform="translate(-130.428 -278.415)"/><path class="d" d="M133.432,285.956a.96.96,0,0,1-.959-.959v-5.112a.959.959,0,1,1,1.918,0V285A.96.96,0,0,1,133.432,285.956Z" transform="translate(-129.917 -278.926)"/></g><g transform="translate(55.742 3.544)"><path class="d" d="M177.02,280.076h-5.111a.958.958,0,0,1,0-1.916h5.111a.958.958,0,0,1,0,1.916Z" transform="translate(-170.95 -275.604)"/><path class="d" d="M173.952,283.144a.959.959,0,0,1-.958-.959v-5.111a.958.958,0,0,1,1.916,0v5.111a.958.958,0,0,1-.958.959Z" transform="translate(-170.439 -276.115)"/></g><g transform="translate(61.283 70.925)"><path class="d" d="M181.457,333.982h-5.111a.959.959,0,1,1,0-1.917h5.111a.959.959,0,0,1,0,1.917Z" transform="translate(-175.387 -329.509)"/><path class="d" d="M178.391,337.049a.959.959,0,0,1-.959-.957v-5.113a.959.959,0,0,1,1.917,0v5.113A.959.959,0,0,1,178.391,337.049Z" transform="translate(-174.876 -330.02)"/></g></g></g></svg>