<svg xmlns="http://www.w3.org/2000/svg" viewBox="0 0 21.91 21.83"><path d="M21.41,5.33a3.94,3.94,0,0,0-.89.87,3.76,3.76,0,0,1-1.38,1.06,3.65,3.65,0,0,1-1.07.31c-.11,0-.68.13-.76,0L14.76,5c-.07-.08.11-.64.14-.75a3.27,3.27,0,0,1,2-2.17A10.94,10.94,0,0,0,19.15.8l0,0s0,0,0,0L19.11.6c-.05-.14-.84-.27-1-.31A9.16,9.16,0,0,0,16.94.07c-2.1-.25-4,.12-5.19,2.09a8.58,8.58,0,0,0-.95,2.71c-.26,1.27-.37,2.53-1.34,3.55S7.72,10.28,6.84,11.2l0,0c-1.87,2-3.75,4-5.61,6A5,5,0,0,0,.12,19a2,2,0,0,0,.94,2.43,2.06,2.06,0,0,0,2.57,0,6.78,6.78,0,0,0,1-.89c1.91-2,3.83-4,5.74-6l0,0c.61-.65,1.23-1.29,1.83-2a3.72,3.72,0,0,1,3.46-1.21,6,6,0,0,0,4.08-1A4.55,4.55,0,0,0,21.91,7.1C21.93,6.77,21.57,5.3,21.41,5.33Zm-19,15.32a1.28,1.28,0,1,1,0-2.56,1.28,1.28,0,1,1,0,2.56Z" fill="#f26624"/></svg>